<?xml version="1.0" standalone="no"?>
<!DOCTYPE svg PUBLIC "-//W3C//DTD SVG 20010904//EN"
 "http://www.w3.org/TR/2001/REC-SVG-20010904/DTD/svg10.dtd">
<svg version="1.0" xmlns="http://www.w3.org/2000/svg"
 width="733.000000pt" height="733.000000pt" viewBox="0 0 733.000000 733.000000"
 preserveAspectRatio="xMidYMid meet">
<metadata>
Created by potrace 1.14, written by Peter Selinger 2001-2017
</metadata>
<g transform="translate(0.000000,733.000000) scale(0.100000,-0.100000)"
fill="#000000" stroke="none">
<path d="M2280 7321 c0 -6 5 -13 10 -16 6 -3 10 -15 10 -26 0 -10 20 -40 45
-66 37 -38 45 -52 45 -84 0 -47 -9 -54 -73 -57 -24 -2 -26 -4 -15 -21 14 -24
58 -34 58 -15 0 8 7 14 15 14 8 0 15 -4 15 -8 0 -11 101 -112 127 -128 33 -20
22 -39 -24 -39 -46 -1 -78 -22 -87 -60 -5 -19 -15 -25 -51 -31 -27 -4 -50 -2
-58 4 -9 8 -26 8 -57 0 -25 -5 -75 -8 -111 -5 -49 4 -75 1 -105 -12 -21 -10
-45 -16 -51 -14 -13 5 -120 -52 -138 -72 -5 -7 -25 -18 -43 -25 -35 -14 -82
-63 -82 -86 0 -8 -4 -23 -10 -34 -5 -11 -15 -29 -21 -41 -6 -12 -9 -23 -6 -25
7 -8 67 59 73 82 3 13 10 24 15 24 5 0 9 7 9 15 0 17 25 20 35 5 3 -5 0 -20
-7 -33 -55 -99 -96 -202 -106 -269 -5 -35 -12 -52 -21 -50 -15 3 -15 5 18
-192 12 -71 25 -134 29 -140 4 -6 12 -29 17 -51 6 -22 16 -39 23 -38 7 2 12
-4 12 -12 0 -8 5 -15 10 -15 6 0 10 -22 10 -49 0 -28 5 -51 11 -53 6 -2 14
-28 17 -58 3 -38 12 -64 28 -83 13 -16 24 -33 24 -38 0 -16 1 -18 16 -55 19
-44 10 -102 -12 -83 -8 6 -14 20 -14 30 0 10 -5 21 -10 24 -7 4 -10 -6 -8 -25
1 -17 6 -34 11 -37 19 -11 27 -56 17 -88 -8 -24 -21 -37 -53 -50 -23 -9 -49
-21 -57 -26 -8 -5 -29 -15 -46 -23 -40 -18 -49 -33 -33 -52 10 -13 10 -17 0
-23 -7 -5 -12 -11 -12 -15 3 -19 0 -26 -13 -26 -8 0 -17 -12 -21 -27 -7 -28
-7 -28 -16 -5 -8 22 -20 28 -32 15 -4 -3 0 -11 9 -18 18 -13 19 -34 5 -130
-12 -85 -20 -115 -36 -135 -23 -29 -55 -110 -55 -139 0 -16 -6 -36 -13 -43
-29 -30 -40 -76 -28 -122 6 -25 11 -59 11 -75 0 -17 4 -31 8 -31 5 0 14 -16
20 -36 12 -41 2 -80 -27 -101 -10 -7 -24 -32 -30 -57 -6 -25 -15 -48 -21 -51
-5 -3 -10 -14 -10 -23 0 -10 -14 -45 -30 -80 -17 -34 -32 -77 -34 -96 -2 -18
-6 -38 -9 -43 -4 -6 -1 -13 7 -16 13 -5 46 50 46 78 0 26 17 16 23 -12 3 -17
0 -34 -9 -44 -8 -8 -14 -21 -14 -27 0 -7 -9 -12 -20 -12 -24 0 -67 -63 -48
-69 27 -9 39 -32 42 -86 4 -63 -8 -83 -18 -30 -7 37 -21 54 -23 27 -3 -69 -3
-94 1 -147 3 -37 0 -65 -7 -74 -9 -12 -9 -13 1 -7 9 5 12 -2 12 -28 0 -19 -4
-37 -9 -41 -5 -3 -8 -23 -6 -45 2 -22 0 -38 -5 -35 -5 3 -11 1 -15 -5 -3 -6 1
-13 9 -16 9 -3 16 -17 16 -31 0 -13 -4 -21 -10 -18 -6 4 -10 -6 -10 -22 0 -19
3 -24 9 -14 14 21 24 -5 11 -29 -9 -16 -7 -26 10 -50 20 -28 16 -42 -6 -20 -7
7 -11 1 -11 -20 0 -24 3 -27 14 -18 7 6 17 8 21 4 4 -4 0 -13 -9 -19 -24 -18
-34 -57 -15 -57 9 0 16 -4 16 -10 0 -5 -4 -10 -10 -10 -5 0 -10 -4 -10 -10 0
-5 14 -10 31 -10 25 0 32 -6 45 -35 23 -56 15 -60 -33 -15 -18 17 -33 30 -35
30 -11 0 -8 -309 3 -338 7 -18 7 -28 0 -30 -6 -2 -11 -11 -11 -20 0 -15 2 -15
10 -2 8 12 10 9 10 -12 0 -14 6 -29 13 -32 9 -5 9 -7 0 -12 -9 -4 -11 -18 -7
-44 5 -29 2 -43 -10 -55 -15 -15 -16 -12 -16 34 0 28 -4 51 -9 51 -7 0 -24
-123 -21 -160 4 -64 -2 -176 -10 -178 -6 -2 -8 -8 -5 -13 4 -5 1 -17 -4 -26
-8 -14 -11 -1 -12 52 -1 64 -2 67 -10 30 -4 -22 -8 -154 -8 -293 -1 -249 -1
-254 22 -287 19 -28 26 -32 36 -22 11 10 12 8 6 -10 -8 -29 19 -32 34 -4 6 10
24 24 41 30 26 9 30 14 24 36 -7 26 4 33 23 14 9 -9 12 -7 13 7 1 10 2 36 3
57 2 36 4 38 33 35 17 -1 43 6 59 16 16 11 38 16 53 13 33 -6 52 1 52 20 0 8
5 11 10 8 6 -4 8 -12 4 -18 -3 -7 0 -5 8 4 13 15 51 39 62 39 4 0 1 -9 -6 -20
-15 -24 -4 -37 18 -19 9 7 29 12 45 11 16 -1 29 2 29 8 0 5 -12 10 -26 10 -19
0 -25 5 -22 17 2 12 14 18 40 18 22 1 53 13 75 27 28 19 57 27 108 32 102 9
109 10 118 21 4 6 13 3 21 -8 10 -13 15 -15 18 -5 3 9 28 14 79 15 196 4 261
11 278 28 15 16 14 17 -11 13 -19 -4 -25 -1 -21 9 3 7 18 13 34 13 26 0 29 -3
23 -25 -5 -20 -3 -24 9 -19 12 4 14 1 10 -15 -4 -16 1 -21 29 -26 61 -12 93
-3 96 25 2 14 6 32 9 40 3 8 5 21 4 27 -1 9 11 12 36 11 68 -2 83 1 83 20 0
14 4 12 20 -8 l19 -25 11 30 c8 21 8 31 1 33 -17 6 -13 42 5 49 9 3 25 1 35
-5 15 -10 21 -8 32 9 8 11 13 28 10 39 -3 10 0 21 6 24 6 4 11 16 11 26 0 11
10 25 23 31 12 7 34 25 49 42 24 26 31 29 65 22 21 -4 41 -12 45 -18 5 -8 11
-7 21 2 19 15 31 -1 22 -28 -3 -11 -1 -22 5 -26 15 -9 13 -92 -2 -98 -8 -2 -9
-8 -4 -13 5 -5 11 -4 13 4 3 6 11 12 19 12 8 0 14 5 14 10 0 13 50 13 70 0 13
-8 13 -10 -2 -10 -14 0 -16 -6 -11 -32 3 -18 10 -38 15 -45 6 -7 5 -14 -2 -18
-7 -4 -9 -18 -6 -30 4 -14 1 -25 -6 -27 -8 -3 -4 -13 11 -29 l22 -24 -42 -7
c-23 -4 -45 -6 -48 -3 -4 2 -24 -12 -44 -30 -22 -20 -43 -32 -52 -29 -18 7
-21 -26 -3 -44 13 -13 -8 -46 -24 -36 -6 4 -14 0 -19 -7 -13 -21 -11 -26 14
-25 16 1 22 -5 22 -19 0 -15 -7 -20 -30 -21 -16 -1 -36 3 -42 8 -16 13 -17 -9
-4 -45 9 -23 7 -26 -23 -31 -18 -4 -41 -4 -50 0 -26 10 -76 -15 -76 -38 0 -27
-24 -17 -28 11 -3 16 0 21 9 16 8 -5 10 -4 5 3 -11 17 -47 -4 -40 -23 4 -8 1
-15 -5 -15 -6 0 -11 7 -11 15 0 11 -10 15 -37 14 -24 -1 -29 -3 -15 -6 24 -5
29 -18 10 -26 -10 -4 -10 -8 1 -15 8 -6 11 -17 6 -32 -5 -15 -4 -20 4 -16 6 4
11 3 11 -2 0 -5 -23 -12 -50 -16 -64 -9 -80 -15 -80 -31 0 -8 -5 -17 -11 -21
-9 -5 -10 4 -5 31 8 40 -4 58 -31 48 -14 -6 -18 -33 -4 -33 5 0 11 -9 14 -20
3 -11 0 -20 -6 -20 -6 0 -18 -7 -26 -14 -9 -8 -47 -18 -85 -22 -62 -6 -69 -5
-63 9 5 12 1 17 -13 17 -14 0 -18 -5 -13 -16 5 -14 3 -15 -15 -5 -13 7 -22 8
-22 2 0 -5 -12 -11 -27 -13 -16 -2 -27 -8 -26 -15 2 -8 -8 -13 -28 -13 -20 0
-28 4 -23 12 5 8 2 9 -9 5 -10 -4 -17 -1 -17 6 0 7 -7 4 -14 -6 -10 -13 -15
-15 -18 -5 -3 9 -24 13 -62 14 -31 0 -61 5 -67 11 -9 9 -59 6 -59 -4 0 -2 5
-13 10 -24 8 -15 7 -19 -5 -19 -8 0 -15 -6 -15 -12 -1 -7 -10 4 -20 24 -11 20
-24 39 -29 43 -6 3 -8 12 -4 20 3 10 -1 15 -15 15 -18 0 -19 -3 -9 -25 7 -14
15 -25 20 -25 4 0 7 -7 7 -16 0 -8 4 -12 10 -9 5 3 10 1 10 -4 0 -7 -27 -12
-65 -13 -36 -1 -73 -2 -82 -2 -14 -1 -19 8 -21 38 -2 21 0 46 3 55 6 14 9 13
24 -6 l18 -22 21 24 c11 13 18 26 15 29 -4 3 2 6 13 6 15 0 16 2 5 9 -10 7
-19 4 -28 -7 -16 -22 -17 -11 0 20 7 14 19 23 27 20 11 -3 11 0 -3 14 -20 22
-45 12 -62 -24 -8 -19 -16 -21 -60 -16 -27 2 -52 9 -53 14 -2 6 -21 13 -43 16
-21 4 -39 11 -39 16 0 5 9 7 19 3 16 -5 18 -2 14 15 -4 15 -11 19 -24 15 -14
-5 -17 -2 -13 9 7 19 16 20 32 4 9 -9 15 -9 24 0 9 9 8 12 -3 16 -8 2 -31 10
-51 16 -21 6 -38 16 -38 22 0 12 -15 1 -15 -10 0 -4 -4 -13 -8 -20 -13 -20 2
-52 26 -53 20 -1 21 -2 2 -6 -11 -3 -28 -12 -38 -21 -15 -14 -21 -14 -39 -3
-18 11 -22 11 -30 -3 -11 -20 -28 -21 -28 -1 0 8 5 15 12 15 6 0 9 3 5 6 -11
12 -47 -8 -47 -26 0 -10 -7 -25 -15 -34 -17 -17 -20 -36 -5 -36 21 0 9 -18
-20 -30 -42 -17 -52 -33 -41 -63 13 -35 -3 -47 -53 -41 -38 6 -43 4 -54 -20
-6 -14 -9 -34 -6 -43 4 -14 3 -13 -7 2 -17 26 -22 117 -10 161 6 21 6 34 0 34
-5 0 -8 3 -8 8 3 20 -3 32 -17 32 -8 0 -12 5 -8 11 4 6 19 9 38 5 l31 -6 -24
19 c-13 10 -21 23 -17 29 10 16 -11 24 -33 12 -14 -7 -33 -7 -63 1 -61 17
-169 -1 -253 -41 -55 -26 -65 -35 -60 -51 4 -11 2 -19 -4 -19 -6 0 -11 -9 -11
-20 0 -11 -7 -20 -15 -20 -9 0 -18 -7 -21 -15 -4 -8 -9 -13 -13 -10 -15 9 -29
-64 -20 -102 5 -21 9 -57 9 -81 0 -26 4 -41 10 -37 6 3 10 -4 10 -17 0 -23 32
-94 71 -158 12 -19 35 -66 51 -104 16 -39 37 -78 48 -88 11 -11 20 -29 20 -41
0 -38 12 -66 29 -72 9 -2 22 -18 29 -34 17 -38 112 -156 126 -156 6 0 10 14 8
33 -2 18 1 32 7 32 6 0 11 -7 11 -15 0 -8 4 -15 9 -15 5 0 12 -15 15 -33 4
-22 19 -44 42 -63 20 -16 46 -39 57 -52 12 -12 44 -37 72 -54 45 -29 124 -88
151 -113 5 -5 21 -29 34 -52 13 -24 29 -43 36 -43 7 0 14 -5 16 -11 2 -6 22
-22 43 -34 22 -13 39 -27 38 -33 -2 -6 11 -22 28 -37 l31 -25 1212 2 c1118 3
1213 4 1240 20 28 16 30 16 46 -3 19 -21 65 -27 57 -6 -3 8 6 12 27 13 17 1
25 -1 19 -3 -53 -19 77 -33 155 -17 17 3 39 14 49 23 10 9 27 15 37 13 11 -2
25 3 31 11 6 9 36 29 66 44 88 47 130 73 148 90 8 9 36 25 61 35 69 29 130 62
130 70 0 4 36 26 81 49 45 22 107 58 139 80 31 21 63 39 69 39 6 0 11 5 11 10
0 6 6 10 13 10 8 0 22 9 32 20 10 11 22 17 26 14 5 -3 12 2 15 10 3 9 11 16
17 16 5 0 24 10 41 23 17 12 56 36 86 51 30 16 57 33 60 37 3 4 50 30 105 59
55 29 102 56 103 61 2 5 25 21 50 35 94 50 136 75 142 83 3 4 34 32 70 62 36
29 71 59 78 66 25 25 212 18 212 -7 0 -5 23 -30 50 -56 28 -26 50 -53 50 -60
0 -15 63 -68 105 -88 17 -8 43 -25 57 -38 49 -43 73 -66 85 -81 9 -11 21 -13
48 -7 23 5 51 3 82 -6 61 -19 123 -18 151 2 13 9 31 14 41 11 15 -3 17 0 14
17 -4 17 -3 18 6 6 10 -13 12 -13 20 0 7 9 6 19 -1 27 -6 8 -8 16 -4 20 3 3 6
1 6 -6 0 -7 5 -9 10 -6 6 3 10 1 10 -4 0 -6 5 -11 10 -11 6 0 10 5 10 11 0 13
26 40 37 39 4 0 9 7 11 17 3 20 42 50 42 33 0 -5 4 -10 9 -10 16 0 24 59 10
76 -10 12 -9 16 7 20 10 3 28 17 39 32 20 27 20 45 23 2771 l2 2743 -30 49
c-16 27 -30 53 -30 57 0 5 -13 20 -28 35 -16 15 -39 49 -52 75 -13 26 -38 68
-56 95 -18 26 -36 57 -40 69 -9 29 -34 55 -34 36 0 -7 -9 5 -19 27 -10 22 -42
60 -70 84 -28 24 -51 49 -51 56 0 7 -10 19 -22 28 -13 8 -52 42 -88 76 -35 33
-68 61 -72 61 -4 0 -14 13 -23 29 -8 17 -30 44 -47 60 l-33 31 -2122 0 c-2116
0 -2121 0 -2116 -20 3 -11 0 -20 -6 -20 -6 0 -16 9 -23 20 -9 14 -24 20 -50
20 -21 0 -38 -4 -38 -9z m-353 -763 c1 -12 -5 -18 -21 -18 -28 0 -46 -18 -46
-46 0 -12 -6 -24 -13 -27 -7 -2 -18 -33 -26 -68 -7 -35 -19 -82 -26 -104 -7
-22 -16 -61 -19 -87 -3 -27 -8 -68 -12 -92 -4 -34 -9 -44 -20 -39 -12 4 -14
27 -11 132 4 120 11 156 43 228 8 17 14 36 14 43 0 6 4 9 10 5 15 -9 42 55 38
91 -2 18 0 30 4 28 4 -3 16 -1 25 5 14 8 23 5 39 -12 11 -12 21 -30 21 -39z
m173 -29 c0 -19 -108 -119 -129 -119 -17 0 -15 4 10 31 16 17 29 35 29 40 0
18 33 47 48 41 10 -3 13 -1 8 6 -5 8 0 12 13 12 12 0 21 -5 21 -11z m70 -25
c0 -8 -4 -12 -10 -9 -5 3 -10 10 -10 16 0 5 5 9 10 9 6 0 10 -7 10 -16z m43
-1 c-7 -2 -19 -2 -25 0 -7 3 -2 5 12 5 14 0 19 -2 13 -5z m-283 -143 c-15 -28
-24 -19 -16 16 5 19 10 24 17 17 8 -8 7 -18 -1 -33z m177 17 c-2 -7 -18 -11
-35 -9 -18 2 -32 -1 -32 -7 0 -6 -5 -11 -10 -11 -7 0 -7 6 -1 19 12 21 85 28
78 8z m103 3 c0 -5 -5 -10 -11 -10 -5 0 -7 5 -4 10 3 6 8 10 11 10 2 0 4 -4 4
-10z m-73 -94 c1 -1 0 -12 -4 -24 -3 -13 -13 -22 -25 -22 -14 0 -18 -5 -14
-15 3 -8 2 -15 -3 -15 -4 0 -23 -13 -41 -30 -18 -16 -39 -30 -46 -30 -7 0 -16
-9 -19 -20 -3 -11 -10 -20 -14 -20 -12 0 -4 74 8 78 6 2 18 18 26 35 24 50
102 87 132 63z m3310 -88 c-3 -7 -5 -2 -5 12 0 14 2 19 5 13 2 -7 2 -19 0 -25z
m-3502 -28 c3 -5 1 -10 -4 -10 -6 0 -11 5 -11 10 0 6 2 10 4 10 3 0 8 -4 11
-10z m305 -40 c0 -5 -2 -10 -4 -10 -3 0 -8 5 -11 10 -3 6 -1 10 4 10 6 0 11
-4 11 -10z m-349 -53 c-10 -9 -11 -8 -5 6 3 10 9 15 12 12 3 -3 0 -11 -7 -18z
m-86 -65 c-6 -16 -7 -16 -16 0 -6 11 -5 26 3 45 l13 28 3 -29 c2 -15 1 -35 -3
-44z m185 49 c0 -5 -10 -29 -22 -53 -13 -23 -23 -43 -23 -44 0 -1 -12 -4 -27
-8 -26 -6 -27 -5 -22 26 3 18 19 45 35 61 29 26 59 36 59 18z m250 -17 c0 -10
-50 -54 -61 -54 -6 0 -7 -4 -4 -10 3 -5 1 -10 -4 -10 -6 0 -11 5 -11 10 0 6
-5 10 -10 10 -6 0 -10 -8 -8 -17 2 -11 -4 -18 -15 -18 -16 0 -53 -53 -43 -62
3 -3 -2 -25 -9 -49 -9 -32 -10 -54 -3 -80 7 -28 6 -41 -7 -61 -14 -21 -15 -27
-4 -35 14 -10 2 -7 -36 8 -11 5 -15 -1 -16 -22 -1 -16 -1 -35 0 -41 1 -7 -5
-25 -14 -40 -15 -26 -16 -20 -10 106 6 142 21 197 63 235 12 10 19 22 17 26
-10 16 17 70 35 70 11 0 22 5 25 10 3 6 16 10 28 9 12 0 16 -3 10 -6 -18 -7
-16 -23 2 -23 8 0 15 6 15 13 0 7 5 18 12 25 13 13 48 17 48 6z m-274 -131
c-8 -22 -17 -66 -21 -97 -11 -87 -28 -82 -24 7 3 53 9 81 22 94 9 11 14 22 11
26 -3 3 -3 11 1 17 17 27 25 -8 11 -47z m344 47 c0 -5 -4 -10 -10 -10 -5 0
-10 5 -10 10 0 6 5 10 10 10 6 0 10 -4 10 -10z m-100 -76 c0 -8 -5 -12 -10 -9
-6 4 -8 11 -5 16 9 14 15 11 15 -7z m-55 -21 c-8 -15 -12 -30 -9 -35 3 -4 2
-8 -3 -8 -43 1 -41 70 2 70 23 0 23 -1 10 -27z m2945 17 c0 -5 -4 -10 -10 -10
-5 0 -10 5 -10 10 0 6 5 10 10 10 6 0 10 -4 10 -10z m-890 -20 c0 -5 -5 -10
-11 -10 -5 0 -7 5 -4 10 3 6 8 10 11 10 2 0 4 -4 4 -10z m925 -20 c3 -5 1 -10
-4 -10 -6 0 -11 5 -11 10 0 6 2 10 4 10 3 0 8 -4 11 -10z m-3010 -88 c0 -33 3
-64 7 -68 4 -4 5 -10 2 -15 -2 -5 -14 1 -25 12 -14 14 -19 32 -18 62 2 57 8
79 22 74 7 -2 12 -27 12 -65z m58 -14 c3 -12 4 -25 1 -30 -9 -14 -34 -9 -34 7
0 8 5 15 11 15 6 0 9 7 5 15 -3 8 -2 15 3 15 5 0 11 -10 14 -22z m1577 -10 c0
-5 -4 -8 -10 -8 -5 0 -10 10 -10 23 0 18 2 19 10 7 5 -8 10 -18 10 -22z m112
0 c-15 -15 -26 -4 -18 18 5 13 9 15 18 6 9 -9 9 -15 0 -24z m-192 12 c0 -5 -4
-10 -10 -10 -5 0 -10 5 -10 10 0 6 5 10 10 10 6 0 10 -4 10 -10z m280 0 c0 -5
-7 -10 -16 -10 -8 0 -12 5 -9 10 3 6 10 10 16 10 5 0 9 -4 9 -10z m225 -49 c3
-5 -5 -21 -18 -35 -25 -27 -47 -34 -47 -16 0 6 5 10 10 10 6 0 15 11 20 25 10
26 24 32 35 16z m-75 -11 c0 -5 -2 -10 -4 -10 -3 0 -8 5 -11 10 -3 6 -1 10 4
10 6 0 11 -4 11 -10z m169 -6 c3 -3 0 -9 -6 -15 -15 -15 -43 -4 -43 16 0 12 6
15 23 9 12 -3 24 -8 26 -10z m-2386 -26 c6 -22 5 -22 -8 -4 -17 22 -20 40 -6
32 5 -3 11 -16 14 -28z m1317 12 c0 -5 -2 -10 -4 -10 -3 0 -8 5 -11 10 -3 6
-1 10 4 10 6 0 11 -4 11 -10z m-25 -10 c3 -6 -1 -7 -9 -4 -18 7 -21 14 -7 14
6 0 13 -4 16 -10z m1178 -35 c-7 -33 57 -90 72 -65 21 33 65 -23 46 -58 -13
-24 -49 -19 -69 10 -7 10 -19 18 -26 18 -8 0 -18 6 -24 13 -6 7 -31 11 -62 11
-34 -1 -47 2 -39 7 9 6 11 12 4 17 -6 4 -12 21 -13 38 -2 33 15 48 42 38 8 -3
17 -1 20 4 11 19 53 -10 49 -33z m-1203 10 c0 -8 -4 -15 -10 -15 -5 0 -10 7
-10 15 0 8 5 15 10 15 6 0 10 -7 10 -15z m-1073 -30 c-3 -19 -13 -43 -22 -52
-9 -9 -15 -24 -12 -33 3 -10 1 -24 -4 -31 -6 -9 -8 10 -7 50 1 35 4 58 6 52 2
-6 8 -11 13 -11 6 0 7 4 4 10 -6 10 11 50 22 50 3 0 3 -16 0 -35z m817 -3 c3
-5 -2 -19 -10 -31 -13 -18 -19 -20 -30 -10 -13 10 -12 14 2 30 19 21 30 24 38
11z m1276 -2 c0 -5 -4 -10 -10 -10 -5 0 -10 5 -10 10 0 6 5 10 10 10 6 0 10
-4 10 -10z m-1853 -22 c-3 -8 -6 -5 -6 6 -1 11 2 17 5 13 3 -3 4 -12 1 -19z
m170 -40 c-3 -8 -6 -5 -6 6 -1 11 2 17 5 13 3 -3 4 -12 1 -19z m-485 -47 c0
-23 4 -44 9 -47 12 -7 11 -24 -2 -24 -5 0 -7 5 -4 10 3 6 1 10 -4 10 -6 0 -11
-8 -11 -18 0 -19 -18 -42 -32 -42 -4 0 -8 8 -8 17 0 24 23 83 32 83 4 0 8 14
8 32 0 17 3 29 6 26 3 -3 5 -24 6 -47z m608 17 c1 -23 1 -23 16 -3 13 17 16
18 24 5 18 -28 10 -53 -25 -86 -19 -17 -35 -29 -35 -25 -1 21 -20 -29 -20 -51
0 -22 5 -28 20 -28 13 0 29 -13 42 -36 17 -28 26 -35 45 -31 17 3 23 0 23 -14
0 -13 5 -16 16 -12 16 6 102 -32 116 -52 21 -29 8 -38 -46 -32 -59 6 -94 -9
-83 -36 4 -10 -1 -17 -15 -20 -11 -3 -17 -10 -13 -16 4 -7 -4 -11 -20 -11 -14
0 -28 -6 -31 -14 -3 -8 -16 -17 -30 -20 -31 -8 -31 -34 1 -42 33 -8 32 -22 -2
-30 -50 -10 -55 -14 -49 -30 7 -17 -21 -51 -32 -39 -4 4 -1 10 6 12 18 7 15
37 -7 50 -21 13 -34 50 -20 59 5 3 9 0 9 -5 0 -6 6 -11 13 -11 6 1 2 9 -10 19
-27 22 -29 43 -8 61 8 7 15 25 15 41 0 15 7 34 15 42 12 13 12 15 -5 20 -12 3
-24 -1 -30 -11 -8 -15 -12 -9 -9 14 0 3 -7 11 -17 18 -14 11 -15 18 -6 44 7
19 7 34 1 37 -5 4 -9 -3 -9 -14 0 -30 -17 -26 -23 5 -3 16 0 28 9 31 7 2 10
12 7 20 -4 9 1 19 10 25 11 6 17 22 17 43 0 26 4 35 17 35 13 0 14 3 5 12 -14
14 -16 28 -4 28 5 0 15 -18 22 -40 16 -47 30 -52 30 -10 0 17 -5 30 -11 30 -7
0 -5 10 5 25 9 13 16 31 16 39 0 13 16 22 48 25 6 0 12 -9 12 -21z m1910 -10
c0 -19 -2 -20 -10 -8 -13 19 -13 30 0 30 6 0 10 -10 10 -22z m103 -18 l32 -11
-25 -13 c-16 -8 -31 -10 -42 -4 -14 7 -18 4 -18 -13 0 -16 5 -20 19 -16 13 3
28 -5 44 -23 14 -15 35 -35 48 -44 l24 -16 -26 -26 c-20 -20 -31 -24 -54 -18
-15 4 -30 15 -32 25 -3 12 -14 19 -29 19 -22 0 -24 -4 -24 -48 0 -56 13 -73
50 -66 24 5 27 3 27 -25 0 -35 -16 -42 -24 -11 -6 23 -16 25 -45 9 -16 -9 -19
-8 -16 3 3 7 -1 26 -9 41 -8 15 -11 32 -8 36 3 5 1 20 -3 32 -7 18 -4 27 12
40 21 17 21 17 1 16 -15 -2 -19 3 -17 21 2 15 -2 22 -14 22 -15 0 -16 -7 -10
-56 4 -35 3 -53 -3 -49 -6 3 -7 13 -4 22 4 11 2 14 -5 9 -15 -9 -34 29 -27 57
5 19 2 23 -19 25 -30 2 -31 -1 -10 -33 19 -29 12 -33 -13 -7 -10 9 -18 26 -18
37 0 16 7 20 40 22 22 1 48 2 57 2 9 1 23 8 32 16 8 8 26 16 40 17 20 2 26 8
27 28 1 15 3 19 6 8 2 -9 19 -21 36 -28z m117 24 c0 -8 5 -12 10 -9 6 3 10 2
10 -3 0 -6 11 -13 25 -16 25 -6 37 -39 13 -34 -7 1 -27 -6 -45 -15 -17 -9 -39
-14 -47 -11 -9 3 -16 1 -16 -5 0 -6 -5 -11 -11 -11 -13 0 -1 43 13 49 6 2 4 7
-3 12 -11 7 -9 10 9 15 20 6 26 16 23 37 0 4 4 7 9 7 6 0 10 -7 10 -16z
m-2220 -13 c0 -6 -4 -13 -10 -16 -5 -3 -10 1 -10 9 0 9 5 16 10 16 6 0 10 -4
10 -9z m-98 -33 c3 -18 8 -40 12 -49 4 -9 -4 -29 -21 -52 -32 -41 -36 -43 -57
-22 -17 17 -36 20 -36 5 0 -13 -57 -13 -65 0 -4 6 -11 8 -16 5 -5 -4 -9 5 -9
19 0 13 5 26 11 28 5 2 11 12 13 23 4 25 20 22 24 -5 2 -11 8 -20 13 -20 6 0
9 10 7 22 -2 11 3 23 10 26 9 3 11 -3 6 -22 -3 -14 -3 -26 1 -26 11 0 44 44
45 59 0 15 29 40 46 41 7 0 14 -15 16 -32z m388 2 c0 -5 -7 -10 -16 -10 -8 0
-12 5 -9 10 3 6 10 10 16 10 5 0 9 -4 9 -10z m-578 -52 c-3 -12 -8 -16 -14
-10 -6 6 -7 20 -3 32 9 28 25 8 17 -22z m2661 15 c8 -7 -31 -53 -45 -53 -5 0
-2 7 6 16 9 8 16 22 16 30 0 15 12 19 23 7z m-173 -33 c0 -5 -2 -10 -4 -10 -3
0 -8 5 -11 10 -3 6 -1 10 4 10 6 0 11 -4 11 -10z m-2765 -19 c3 -5 -2 -17 -11
-26 -22 -21 -44 -4 -24 20 14 17 26 19 35 6z m265 -1 c0 -5 -4 -10 -9 -10 -6
0 -13 5 -16 10 -3 6 1 10 9 10 9 0 16 -4 16 -10z m2573 -34 c9 -10 17 -23 17
-28 0 -4 9 -8 20 -8 12 0 17 -5 14 -13 -7 -19 14 -69 26 -62 5 3 10 -1 10 -9
0 -27 -24 -18 -65 24 -26 27 -42 37 -49 30 -17 -17 -26 -11 -26 15 0 14 -4 25
-10 25 -5 0 -10 11 -10 24 0 21 5 24 28 23 15 -1 35 -11 45 -21z m62 -6 c3 -5
-1 -10 -10 -10 -9 0 -13 5 -10 10 3 6 8 10 10 10 2 0 7 -4 10 -10z m-1119 -45
c3 -14 9 -25 13 -25 3 0 16 -3 29 -6 13 -4 22 -2 22 5 0 7 -4 10 -8 7 -4 -2
-13 4 -20 15 -14 22 -12 23 22 8 14 -7 27 -19 29 -28 3 -9 5 -4 6 12 1 18 6
27 17 27 12 0 15 -6 11 -21 -7 -25 11 -79 25 -79 6 0 16 6 22 14 6 7 30 16 53
19 36 4 40 3 28 -9 -7 -8 -17 -14 -21 -14 -4 0 -15 -6 -23 -14 -37 -32 -79
-26 -93 14 -3 9 -11 13 -78 27 -14 3 -29 12 -33 19 -4 8 -16 14 -27 14 -13 0
-17 5 -13 20 7 28 31 25 39 -5z m191 -21 c-3 -3 -12 -4 -19 -1 -8 3 -5 6 6 6
11 1 17 -2 13 -5z m849 -41 c-10 -10 -19 5 -10 18 6 11 8 11 12 0 2 -7 1 -15
-2 -18z m-80 -1 c24 -22 47 -62 40 -69 -3 -3 -8 2 -12 11 -3 9 -10 16 -15 16
-17 0 -51 38 -44 49 8 14 9 14 31 -7z m-2274 -7 c0 -5 -5 -11 -11 -13 -6 -2
-11 4 -11 13 0 9 5 15 11 13 6 -2 11 -8 11 -13z m1768 -32 c-1 -43 -2 -46 -15
-30 -7 11 -11 25 -8 33 3 9 -2 14 -15 14 -11 0 -25 7 -32 15 -11 13 -7 15 29
15 l41 0 0 -47z m84 38 c7 -11 -22 -23 -35 -15 -5 3 -9 9 -9 15 0 12 37 12 44
0z m-154 -36 c10 -13 9 -15 -9 -15 -11 0 -21 -6 -21 -12 0 -7 -5 -5 -11 5 -5
9 -18 17 -27 18 -11 1 -8 4 8 9 38 12 46 11 60 -5z m180 -6 c0 -5 -10 -9 -21
-9 -18 0 -19 2 -9 15 12 15 30 12 30 -6z m-50 4 c0 -5 -5 -15 -10 -23 -8 -12
-10 -11 -10 8 0 12 5 22 10 22 6 0 10 -3 10 -7z m672 -48 c-4 -43 -5 -45 -21
-31 -26 23 -38 20 -50 -15 -7 -21 -15 -28 -23 -23 -10 6 -9 3 1 -9 7 -9 11
-24 7 -32 -3 -8 -1 -15 4 -15 6 0 10 4 10 9 0 5 9 11 19 14 24 6 33 -31 15
-64 -7 -13 -10 -28 -7 -34 2 -5 -4 0 -14 13 -19 23 -109 44 -163 38 -14 -2
-35 -4 -47 -5 -16 -1 -23 -7 -23 -21 0 -22 12 -24 110 -22 49 1 53 0 37 -12
-17 -13 -16 -15 15 -22 18 -5 40 -9 48 -9 8 0 15 -7 15 -15 0 -8 4 -21 8 -28
13 -20 -24 -28 -39 -7 -8 10 -20 15 -29 11 -16 -6 -86 11 -159 37 -39 15 -60
44 -50 70 3 8 -2 20 -11 27 -21 18 -19 25 10 28 18 1 25 -3 26 -16 1 -15 2
-15 6 1 3 13 11 17 24 14 19 -5 47 18 36 30 -4 3 -2 12 5 20 14 17 3 29 -14
15 -16 -13 -81 -8 -86 6 -2 8 -11 8 -29 1 -40 -15 -99 -8 -112 13 -9 15 -8 18
10 18 11 0 18 -4 15 -9 -4 -5 18 -8 49 -8 48 2 55 5 51 19 -5 22 12 34 27 19
8 -8 8 -11 -1 -11 -7 0 -12 -7 -12 -15 0 -18 5 -18 30 -5 11 6 21 6 24 1 4 -5
22 -5 43 -1 21 5 42 5 48 0 12 -10 53 -3 72 12 7 5 16 7 22 4 14 -9 61 15 61
30 0 13 30 35 40 29 3 -2 4 -24 2 -50z m-134 14 c-3 -8 -7 -3 -11 10 -4 17 -3
21 5 13 5 -5 8 -16 6 -23z m182 -9 c0 -5 -7 -10 -15 -10 -8 0 -15 5 -15 10 0
6 7 10 15 10 8 0 15 -4 15 -10z m-1210 -36 c0 -2 -7 -4 -15 -4 -8 0 -15 4 -15
10 0 5 7 7 15 4 8 -4 15 -8 15 -10z m-1300 -14 c0 -5 -5 -10 -11 -10 -5 0 -7
5 -4 10 3 6 8 10 11 10 2 0 4 -4 4 -10z m1394 4 c22 -8 20 -23 -1 -19 -10 2
-22 4 -26 4 -5 1 -5 6 -2 11 7 12 8 12 29 4z m268 -16 c-11 -11 -32 -3 -32 12
0 4 9 6 21 3 13 -4 17 -9 11 -15z m186 -26 c-3 -26 -9 -38 -22 -40 -15 -3 -16
-1 -7 16 6 12 11 32 11 47 0 16 4 24 11 20 5 -4 9 -23 7 -43z m35 2 c-4 -39
-2 -46 11 -41 10 4 13 1 10 -7 -3 -8 -16 -13 -30 -13 -19 0 -24 3 -19 16 4 9
9 33 12 54 8 53 21 46 16 -9z m-323 -5 c0 -11 -7 -19 -15 -19 -8 0 -15 5 -15
10 0 6 -20 10 -44 10 -25 0 -48 5 -51 10 -4 7 17 10 59 9 57 -1 66 -4 66 -20z
m-1587 -73 c1 -43 -18 -96 -34 -96 -4 0 -1 12 7 28 7 15 14 49 14 76 0 61 11
54 13 -8z m2050 21 c9 -4 17 -11 17 -17 0 -13 -24 -12 -81 3 -39 10 -44 14
-32 26 8 7 21 10 29 7 7 -3 14 0 14 6 0 7 7 5 18 -4 9 -8 25 -18 35 -21z m67
-7 c0 -5 -4 -10 -10 -10 -5 0 -10 5 -10 10 0 6 5 10 10 10 6 0 10 -4 10 -10z
m-770 -14 c0 -16 -14 -36 -25 -36 -17 0 -28 17 -20 30 6 10 45 15 45 6z m787
-38 c-3 -8 -6 -5 -6 6 -1 11 2 17 5 13 3 -3 4 -12 1 -19z m-2074 6 c3 -3 3
-12 0 -20 -4 -10 -9 -11 -24 -1 -10 6 -19 15 -19 19 0 9 34 11 43 2z m1552
-16 c7 -6 3 -14 -10 -24 -17 -13 -21 -13 -31 1 -8 10 -13 12 -16 5 -5 -15
-125 -15 -143 0 -8 6 -12 17 -9 23 5 15 194 10 209 -5z m-345 2 c0 -5 -4 -10
-10 -10 -5 0 -10 5 -10 10 0 6 5 10 10 10 6 0 10 -4 10 -10z m1219 -3 c12 -15
5 -27 -16 -27 -7 0 -13 9 -13 20 0 23 13 26 29 7z m-804 -20 c16 -4 14 -5 -6
-6 -17 -1 -29 5 -33 15 -5 13 -3 14 6 6 7 -5 22 -12 33 -15z m-1645 -16 c0
-10 -26 -9 -36 2 -4 4 2 7 14 7 12 0 22 -4 22 -9z m1995 -2 c69 -17 126 -69
75 -69 -12 0 -20 7 -20 16 0 10 -6 14 -15 10 -8 -3 -15 -2 -15 2 0 10 -42 8
-59 -2 -7 -5 -17 -4 -23 2 -6 6 -16 8 -23 6 -13 -5 -95 26 -95 36 0 12 126 10
175 -1z m-295 -3 c0 -2 -7 -6 -15 -10 -8 -3 -15 -1 -15 4 0 6 7 10 15 10 8 0
15 -2 15 -4z m753 -30 c18 -3 47 -2 66 4 19 5 37 7 41 5 5 -3 11 3 15 13 6 16
7 16 16 -1 6 -10 22 -22 35 -27 23 -9 34 -40 14 -40 -5 0 -10 5 -10 10 0 17
-21 11 -41 -12 l-18 -23 -1 25 c-1 14 -4 19 -7 12 -4 -9 -8 -10 -18 -2 -8 6
-16 7 -19 2 -3 -5 -24 -6 -48 -2 -23 5 -46 6 -52 4 -7 -2 -11 11 -12 33 -1 21
1 31 3 22 2 -10 18 -20 36 -23z m-823 -6 c0 -5 -4 -10 -10 -10 -5 0 -10 5 -10
10 0 6 5 10 10 10 6 0 10 -4 10 -10z m-1736 -75 c-4 -8 -11 -12 -16 -9 -6 4
-5 10 3 15 19 12 19 11 13 -6z m1566 -5 c-12 -11 -27 -17 -33 -13 -5 3 1 12
14 19 36 20 45 17 19 -6z m1045 -20 c3 -5 26 -10 51 -10 31 0 46 -5 51 -16 3
-8 11 -13 19 -10 9 3 12 -4 11 -27 -2 -30 0 -32 48 -42 35 -8 51 -16 53 -29 7
-34 -15 -40 -41 -12 -33 36 -47 33 -47 -10 0 -43 -22 -42 -30 2 -4 24 -11 30
-43 35 -42 7 -39 5 -54 39 -9 18 -12 20 -12 8 -1 -10 -6 -18 -12 -18 -7 0 -9
12 -7 30 3 23 1 29 -8 26 -8 -3 -16 -1 -20 5 -7 13 -29 6 -30 -9 -1 -7 -2 -16
-3 -20 0 -5 -10 -18 -22 -31 -20 -21 -22 -21 -40 -5 -19 17 -26 44 -11 44 4 0
15 14 24 30 15 27 22 30 67 30 27 0 53 -4 56 -10z m-168 -16 c2 -5 -13 -9 -32
-10 -41 -1 -44 3 -12 16 25 10 39 8 44 -6z m-2517 -29 c0 -14 -4 -25 -9 -25
-5 0 -18 -19 -30 -42 -15 -31 -18 -45 -9 -55 14 -17 32 -17 25 0 -3 8 -2 19 3
26 4 8 10 1 14 -21 l8 -33 10 25 c11 26 12 25 23 -24 4 -21 9 -26 14 -17 7 10
10 10 16 1 4 -7 2 -16 -5 -20 -9 -6 -9 -9 0 -15 18 -11 32 9 36 53 4 38 -9 62
-31 59 -5 -1 -11 17 -13 41 -2 28 -8 42 -17 42 -8 0 -17 4 -20 10 -4 6 1 7 11
3 11 -4 15 -3 10 5 -4 7 4 10 24 10 22 -1 38 -10 55 -32 l25 -31 -27 -5 c-14
-3 -28 -10 -30 -17 -6 -17 46 -28 67 -15 14 9 22 7 36 -9 9 -10 26 -19 37 -19
15 0 18 -5 13 -24 -7 -27 13 -49 41 -44 14 2 17 -2 15 -19 -5 -34 17 -28 29 7
13 37 27 38 35 3 7 -26 7 -26 15 -5 8 22 49 32 49 12 0 -5 7 -7 15 -4 11 5 14
0 13 -20 -2 -24 -6 -26 -45 -26 -35 0 -45 -5 -64 -32 l-23 -32 -10 35 -9 34
-8 -35 c-4 -20 -3 -40 2 -46 5 -6 16 -35 25 -63 8 -28 19 -51 24 -51 6 0 10 4
10 9 0 4 28 6 62 4 61 -5 65 -7 120 -63 46 -46 58 -65 58 -89 0 -31 -16 -43
-22 -17 -2 10 -9 11 -28 4 -23 -9 -24 -10 -7 -22 15 -12 16 -18 5 -52 -11 -31
-19 -39 -48 -47 -42 -10 -63 -27 -34 -27 18 0 31 -29 15 -31 -3 0 -32 -2 -63
-4 -55 -4 -58 -3 -102 38 -54 52 -129 81 -189 74 -74 -10 -112 -19 -127 -32
-26 -22 -81 -46 -93 -42 -7 2 -20 -2 -29 -11 -11 -9 -18 -11 -18 -4 0 6 -16
14 -36 18 -35 6 -82 41 -76 57 3 11 -16 8 -23 -4 -4 -6 -13 -8 -20 -5 -17 6
-7 -36 12 -47 13 -8 18 -49 6 -60 -3 -4 -12 2 -20 13 -8 11 -21 20 -29 20 -8
0 -13 4 -10 8 5 9 -56 42 -77 42 -25 0 -36 -21 -26 -48 12 -32 4 -72 -16 -72
-18 0 -28 17 -19 32 12 19 13 52 2 65 -5 7 -8 28 -7 47 2 19 0 38 -4 42 -11
11 -8 26 3 19 6 -3 10 4 10 17 0 13 9 31 20 41 11 9 21 29 22 44 1 34 3 44 11
63 4 8 6 22 5 30 -3 34 3 50 18 50 9 0 18 9 21 21 4 14 11 19 25 16 15 -4 18
-1 13 14 -4 12 -1 21 9 25 9 3 16 12 16 19 0 15 99 115 114 115 5 0 26 18 45
39 37 40 87 68 93 51 5 -15 27 4 31 25 11 54 37 75 37 30z m1180 5 c0 -5 -5
-10 -11 -10 -5 0 -7 5 -4 10 3 6 8 10 11 10 2 0 4 -4 4 -10z m1300 -65 c0 -28
-4 -35 -20 -35 -11 0 -20 7 -20 15 0 8 4 15 9 15 5 0 11 9 14 20 8 31 17 23
17 -15z m33 -2 c5 -26 3 -33 -9 -33 -11 0 -14 6 -10 16 3 9 6 25 6 36 0 29 6
20 13 -19z m170 -30 c-6 -16 -5 -16 10 -5 23 19 37 6 33 -29 -2 -21 2 -33 15
-39 10 -6 16 -17 13 -25 -5 -12 -10 -10 -24 7 -14 18 -20 20 -33 10 -12 -10
-15 -9 -20 8 -3 13 -10 18 -21 14 -10 -4 -16 -1 -16 9 0 24 -31 30 -37 7 -6
-21 -12 -24 -37 -14 -9 3 -13 10 -10 15 3 5 1 9 -4 9 -6 0 -13 7 -16 16 -5 13
-1 15 19 12 14 -3 25 -1 25 3 0 16 48 9 54 -8 6 -14 9 -14 24 5 21 26 34 29
25 5z m67 -23 c0 -5 -5 -10 -11 -10 -5 0 -7 5 -4 10 3 6 8 10 11 10 2 0 4 -4
4 -10z m-2194 -46 c10 -8 13 -13 7 -9 -7 3 -13 1 -13 -5 0 -7 9 -14 20 -17 11
-3 20 -12 20 -20 0 -17 37 -9 60 14 13 12 12 16 -10 33 -26 20 -21 24 18 14
12 -4 22 -13 22 -20 0 -8 6 -13 13 -11 6 1 13 -10 15 -24 3 -22 7 -25 28 -21
13 2 24 0 24 -6 0 -6 12 -12 28 -14 15 -2 28 -9 28 -15 1 -7 2 -17 3 -22 0 -5
10 -11 21 -14 11 -3 20 -10 20 -16 0 -6 -9 -11 -20 -11 -21 0 -28 -26 -8 -32
8 -3 8 -12 1 -33 -8 -25 -16 -31 -47 -33 -41 -4 -66 11 -66 38 0 11 -12 22
-30 29 -32 11 -33 13 -24 60 7 35 24 42 24 9 0 -12 3 -19 6 -15 4 3 4 18 0 32
-5 21 -12 25 -46 25 -22 0 -40 -4 -40 -10 0 -5 11 -10 25 -10 14 0 25 -6 25
-13 0 -22 -26 -51 -39 -43 -9 6 -9 11 -1 21 13 15 -3 30 -20 20 -21 -13 -70 6
-70 26 0 10 -4 19 -10 19 -5 0 -10 -5 -10 -11 0 -8 -5 -8 -15 1 -21 18 -19 33
5 27 13 -3 20 0 20 9 0 8 -7 14 -15 14 -20 0 -19 20 3 36 22 17 24 17 48 -2z
m1908 7 c5 -1 1 -10 -10 -22 -10 -11 -26 -18 -36 -16 -10 3 -26 -2 -34 -11
-15 -15 -17 -14 -29 1 -7 9 -17 17 -23 17 -18 0 -25 22 -11 31 8 5 41 7 74 5
33 -3 64 -5 69 -5z m57 -41 c5 0 18 5 28 11 15 10 22 8 40 -10 18 -18 19 -22
6 -27 -10 -4 -12 -10 -6 -18 5 -6 8 -31 5 -55 -5 -38 -3 -43 12 -37 10 4 21 1
26 -6 12 -19 10 -28 -7 -28 -8 0 -15 -7 -15 -15 0 -10 -11 -15 -35 -15 -30 0
-35 3 -35 24 0 19 -5 24 -25 22 -19 -1 -25 -6 -23 -21 3 -17 -2 -20 -29 -19
-24 2 -34 -3 -39 -18 -3 -11 -1 -25 5 -31 6 -6 11 -21 11 -34 0 -13 8 -27 18
-30 21 -8 42 -35 36 -45 -11 -17 -44 -8 -44 12 0 11 -7 20 -15 20 -8 0 -15 -4
-15 -9 0 -5 -9 -11 -21 -14 -24 -7 -20 -33 5 -29 9 2 16 -4 16 -12 0 -15 29
-29 51 -24 7 2 15 -5 17 -14 3 -14 -2 -17 -20 -16 -13 1 -39 -4 -56 -11 l-33
-14 22 -23 c12 -13 20 -27 16 -30 -4 -4 -19 7 -34 25 -26 30 -63 42 -63 21 0
-5 -4 -10 -10 -10 -5 0 -7 7 -4 15 5 11 0 14 -17 12 -13 -2 -24 -8 -26 -14 -4
-12 50 -25 72 -17 10 4 15 0 15 -15 0 -12 4 -21 8 -21 15 0 42 -69 31 -76 -6
-4 -14 -1 -18 5 -8 13 -41 4 -41 -11 0 -5 -5 -6 -12 -2 -7 4 -8 3 -4 -4 4 -7
14 -12 22 -12 8 0 12 5 9 10 -3 6 -3 10 2 10 14 0 33 -54 26 -78 -6 -24 -28
-25 -28 -2 0 7 -6 15 -12 18 -16 5 -17 -13 -2 -39 9 -17 7 -21 -8 -25 -11 -3
-24 -14 -31 -25 -11 -17 -9 -21 13 -31 29 -13 31 -23 9 -45 -8 -9 -14 -27 -12
-42 2 -20 9 -27 29 -29 22 -3 26 -8 27 -38 1 -24 -3 -34 -13 -34 -8 0 -16 -10
-16 -22 -1 -13 -2 -35 -3 -50 -2 -31 19 -45 40 -27 12 10 20 7 12 -4 -2 -2 2
-10 9 -18 14 -17 20 -89 9 -107 -4 -7 -2 -12 3 -12 6 0 11 -11 11 -25 0 -16 6
-25 15 -25 8 0 15 -7 15 -15 0 -16 16 -20 24 -6 3 5 -1 14 -9 21 -11 9 -12 16
-2 37 9 21 9 27 -1 31 -14 4 -16 52 -2 52 6 0 10 -4 10 -10 0 -19 48 -80 53
-68 3 7 6 -2 6 -20 1 -18 7 -35 15 -38 16 -6 19 -84 2 -84 -6 0 -12 12 -13 26
0 15 -10 36 -21 47 l-20 20 -21 -41 c-21 -42 -30 -81 -11 -52 7 12 12 12 22 2
9 -9 9 -15 0 -24 -9 -9 -9 -15 1 -26 10 -12 9 -14 -8 -9 -29 9 -56 -15 -53
-49 4 -67 -2 -96 -22 -101 -20 -5 -25 -19 -21 -60 1 -13 -4 -23 -11 -23 -25 0
-38 -36 -26 -70 12 -35 -6 -85 -26 -72 -20 12 -65 11 -60 -3 3 -8 -4 -10 -26
-7 -18 2 -30 0 -30 -7 0 -6 7 -11 15 -11 8 0 15 -5 15 -11 0 -5 -4 -7 -10 -4
-5 3 -10 1 -10 -4 0 -6 6 -11 13 -11 19 0 14 -34 -7 -55 -10 -10 -22 -28 -26
-41 -8 -20 -13 -22 -40 -14 -18 5 -30 5 -30 -1 0 -5 5 -9 10 -9 6 0 10 -4 10
-8 0 -11 -42 -8 -65 5 -13 8 -25 8 -38 1 -16 -8 -18 -7 -13 10 4 12 2 23 -6
28 -7 4 -10 4 -6 -1 4 -4 3 -14 -3 -22 -6 -7 -8 -13 -4 -13 4 0 2 -6 -4 -14
-7 -8 -11 -27 -9 -43 4 -33 -24 -41 -30 -8 -6 30 -22 43 -22 17 0 -23 -24 -30
-36 -11 -5 8 -10 6 -16 -5 -6 -11 -4 -21 7 -32 15 -15 17 -15 29 1 12 17 14
17 34 -3 28 -28 27 -34 -3 -49 -18 -8 -25 -8 -25 0 0 6 -6 2 -14 -8 -12 -16
-16 -17 -30 -6 -14 12 -16 11 -16 -8 0 -11 -4 -21 -10 -21 -5 0 -10 5 -10 10
0 6 -8 10 -17 10 -15 -1 -15 -3 5 -19 25 -21 28 -37 10 -44 -7 -3 1 -6 18 -6
33 -1 44 -15 44 -57 0 -14 -6 -24 -15 -24 -8 0 -12 6 -9 13 3 8 -2 19 -10 26
-11 10 -19 9 -35 -1 -24 -15 -22 -34 3 -30 22 4 20 -20 -4 -45 -18 -20 -18
-22 -2 -27 14 -5 16 -15 14 -51 -4 -46 -4 -46 -23 -24 -21 25 -39 18 -39 -17
0 -13 -4 -24 -9 -24 -4 0 -6 -11 -3 -25 3 -18 0 -25 -12 -25 -9 0 -16 -5 -16
-11 0 -8 -4 -8 -13 -1 -9 8 -21 2 -45 -19 l-33 -29 26 -10 c27 -10 26 -30 -1
-30 -25 0 -47 -29 -48 -64 -1 -18 -9 -40 -18 -50 -10 -9 -25 -34 -35 -54 l-18
-37 -9 27 c-9 27 -60 57 -73 44 -4 -4 2 -9 14 -12 24 -7 37 -30 22 -40 -5 -3
-16 -1 -24 6 -11 9 -12 7 -8 -9 3 -12 -4 -32 -16 -50 -12 -16 -21 -34 -21 -40
0 -14 -17 -14 -26 0 -4 8 -9 7 -16 -2 -7 -11 -11 -11 -15 -2 -3 9 -10 9 -28
-3 -24 -15 -45 -12 -45 7 0 5 9 9 20 9 11 0 20 4 20 10 0 5 16 8 36 7 24 -1
39 3 42 12 3 10 0 12 -12 8 -9 -4 -16 -2 -16 3 0 6 -11 10 -25 10 -16 0 -25 6
-25 16 0 12 7 15 25 12 14 -3 28 -1 31 3 3 5 16 9 30 9 22 0 24 3 18 23 -3 12
-7 23 -8 23 -7 7 -108 9 -112 3 -10 -16 -22 -9 -28 16 -5 18 -12 24 -28 22
-11 -1 -23 4 -26 12 -3 10 1 11 18 6 15 -5 20 -4 16 4 -5 7 2 11 16 12 21 0
21 1 3 8 -16 7 -14 9 14 14 51 11 61 9 61 -12 0 -22 26 -35 36 -19 4 6 0 16
-9 22 -23 17 -26 52 -4 48 30 -5 18 14 -16 25 -25 7 -36 7 -45 -4 -7 -7 -18
-13 -25 -12 -9 0 -9 2 1 6 6 2 12 11 12 18 0 7 7 15 15 19 8 3 15 15 15 26 0
17 4 20 20 15 24 -8 26 1 5 22 -21 21 -13 26 18 12 34 -15 64 -5 47 16 -7 8
-21 15 -31 15 -21 0 -26 26 -6 33 16 6 -4 41 -24 43 -47 5 -72 25 -49 39 6 3
10 1 10 -6 0 -9 3 -9 14 0 7 6 21 8 31 5 15 -6 17 -3 11 19 -3 14 -2 29 4 32
20 12 10 34 -17 37 -20 2 -29 9 -31 26 -4 28 -26 28 -46 0 -19 -27 -35 -15
-18 13 7 11 10 24 7 29 -3 5 1 12 8 17 40 24 38 83 -3 83 -11 0 -20 5 -20 11
0 7 -8 18 -17 26 -14 11 -14 14 -3 10 9 -3 24 1 34 9 17 12 17 16 5 30 -11 14
-11 18 -1 21 6 3 10 9 6 14 -8 14 -24 11 -24 -6 0 -8 -9 -15 -20 -15 -11 0
-20 -4 -20 -10 0 -5 5 -10 12 -10 9 0 8 -3 -1 -12 -11 -10 -14 -10 -18 0 -6
16 -28 15 -42 -2 -10 -11 -9 -15 4 -18 13 -2 9 -10 -16 -36 -26 -26 -31 -37
-23 -50 16 -24 34 -26 34 -3 0 14 5 19 15 15 22 -9 18 -34 -11 -60 -30 -29
-55 -31 -71 -5 -16 25 -52 17 -54 -13 -2 -20 -2 -20 -6 1 -2 13 -11 23 -19 23
-13 0 -22 4 -76 31 -17 9 -23 9 -26 0 -7 -21 -19 -2 -15 23 3 13 13 26 22 29
10 2 21 18 24 35 3 17 20 46 37 65 16 19 30 43 30 53 0 11 9 34 20 52 11 18
20 39 20 47 0 21 17 18 30 -5 6 -12 16 -17 26 -13 13 5 13 7 2 14 -11 7 -10 9
1 9 11 0 10 5 -4 20 -14 15 -21 17 -32 9 -22 -19 -26 -2 -5 19 18 18 22 19 32
6 15 -18 30 -9 30 18 0 16 -4 19 -24 14 -14 -3 -27 -2 -30 3 -4 5 -1 40 4 78
24 150 24 154 6 147 -24 -9 -32 23 -13 55 11 19 13 31 6 44 -13 22 -4 37 22
37 13 0 19 7 19 23 0 24 25 66 34 57 3 -3 1 -23 -4 -44 -5 -21 -6 -45 -3 -52
3 -9 -2 -14 -17 -14 -15 0 -20 -5 -18 -17 2 -13 11 -17 27 -15 13 2 27 -1 31
-8 5 -8 17 -9 41 -2 26 8 28 10 11 11 -33 1 -46 43 -32 99 9 39 40 88 40 65 0
-4 10 12 22 36 l22 44 -28 23 c-35 31 -62 33 -44 4 7 -11 18 -20 25 -20 7 0
13 -9 13 -20 0 -11 -7 -20 -15 -20 -8 0 -17 -11 -21 -25 -8 -33 -24 -22 -24
17 0 27 -3 29 -24 24 -20 -5 -23 -3 -18 19 2 14 10 25 18 25 7 0 25 16 40 35
l27 36 -22 23 c-17 18 -22 36 -22 79 -1 30 2 60 6 66 10 17 52 13 59 -6 6 -15
8 -15 16 -3 16 24 11 40 -10 40 -11 0 -20 5 -20 11 0 8 -5 8 -15 -1 -17 -14
-25 -1 -22 39 1 13 -4 26 -11 29 -11 3 -12 0 -3 -16 10 -19 6 -32 -11 -32 -4
0 -8 9 -8 20 0 10 -8 24 -17 29 -17 10 -17 12 1 26 11 8 26 15 33 15 17 0 16
10 -3 49 -12 24 -13 35 -5 45 9 11 10 25 2 65 -1 2 -8 -2 -16 -9 -9 -7 -19
-10 -23 -6 -4 4 1 14 11 21 11 8 14 14 7 17 -6 2 -12 27 -14 55 -2 45 1 53 21
64 14 7 21 19 18 26 -9 25 28 53 68 51 24 -1 37 -6 37 -15 0 -23 18 -14 33 16
8 17 11 35 6 42 -4 7 -3 19 3 26 13 16 45 17 50 3 2 -6 17 -12 33 -14 22 -2
31 -9 33 -25 2 -14 -2 -21 -12 -21 -9 0 -16 -7 -16 -15 0 -8 -9 -19 -20 -25
-25 -13 -26 -40 -2 -40 14 0 15 -2 2 -10 -8 -5 -11 -13 -6 -17 4 -4 13 0 20
10 7 9 24 17 37 18 l24 1 -25 8 c-22 7 -24 12 -3 9 12 -2 24 31 18 50 -4 15 0
18 22 16 43 -3 45 -4 38 -24 -4 -15 1 -20 27 -26 18 -4 50 -8 71 -8 20 1 37
-4 37 -10 0 -5 8 0 19 11 10 12 21 18 26 14 4 -4 4 7 1 24 -6 26 -3 32 19 42
14 7 39 12 55 12 17 0 30 5 30 13 1 7 6 5 14 -5 7 -10 24 -18 37 -18 18 0 20
-3 10 -9 -32 -20 16 -38 69 -25 17 4 25 60 10 69 -6 4 -10 17 -10 31 0 14 4
23 10 19 5 -3 18 3 30 15 21 21 40 26 40 11 0 -6 -4 -13 -10 -16 -6 -4 -1 -18
12 -36 l23 -30 18 23 c18 22 18 23 -1 31 -11 5 -22 17 -25 26 -3 9 -8 24 -12
34 -6 14 -2 17 19 17 15 0 29 7 32 15 4 8 12 15 20 15 20 0 17 13 -6 28 -20
12 -45 8 -36 -7 3 -4 -4 -12 -14 -19 -30 -18 -34 15 -5 44 28 28 43 30 51 9 6
-14 8 -13 19 1 6 9 17 14 23 10 6 -3 13 -2 17 4 10 16 55 12 55 -5 0 -8 7 -15
15 -15 8 0 15 6 15 13 0 8 4 7 10 -3 7 -11 10 -4 10 27 0 48 16 65 29 31 6
-13 10 -18 10 -11 1 6 14 -2 30 -18 31 -30 55 -36 81 -19 13 9 12 13 -7 29
-13 11 -23 30 -23 43 1 20 2 21 13 8 7 -9 20 -14 30 -12 14 3 17 -4 17 -33 0
-22 4 -34 10 -30 6 3 10 19 10 35 0 15 6 30 13 33 9 3 9 7 0 19 -10 11 -10 17
0 27 9 10 13 9 15 -3 2 -9 8 -16 13 -16z m334 10 c4 -6 14 -9 22 -8 9 2 18 -3
20 -9 3 -9 -7 -13 -31 -14 -40 -2 -43 -2 -69 -14 -23 -10 -40 6 -31 29 5 12
13 16 30 12 12 -3 26 -2 29 4 8 13 22 13 30 0z m-155 -30 c14 -4 26 -15 28
-26 3 -21 42 -52 42 -34 0 5 13 10 29 10 24 0 28 -3 24 -19 -3 -11 -15 -21
-27 -23 -20 -3 -32 0 -75 22 -14 7 -21 5 -25 -5 -7 -19 -26 -19 -51 1 -16 12
-17 17 -7 23 8 5 14 12 15 17 1 5 8 8 15 8 19 -3 14 13 -6 18 -10 3 -23 -1
-30 -9 -7 -7 -18 -13 -24 -13 -6 0 -4 8 5 18 10 10 14 22 10 26 -7 7 8 4 77
-14z m-1355 -20 c18 -35 5 -40 -31 -11 -23 18 -24 20 -7 30 10 6 19 11 20 11
1 0 9 -13 18 -30z m185 20 c0 -5 8 -10 18 -10 10 0 21 -2 24 -5 9 -10 -16 -84
-30 -90 -22 -8 -45 22 -40 55 3 16 0 31 -6 33 -14 5 2 27 20 27 8 0 14 -4 14
-10z m730 -10 c0 -5 -4 -10 -10 -10 -5 0 -10 5 -10 10 0 6 5 10 10 10 6 0 10
-4 10 -10z m-790 -4 c0 -3 -4 -8 -10 -11 -5 -3 -10 -1 -10 4 0 6 5 11 10 11 6
0 10 -2 10 -4z m-70 -86 c0 -5 -16 -10 -35 -10 -19 0 -35 5 -35 10 0 6 16 10
35 10 19 0 35 -4 35 -10z m640 0 c0 -5 -5 -10 -11 -10 -5 0 -7 5 -4 10 3 6 8
10 11 10 2 0 4 -4 4 -10z m850 0 c0 -5 -7 -10 -16 -10 -8 0 -12 5 -9 10 3 6
10 10 16 10 5 0 9 -4 9 -10z m-1330 -40 c0 -5 -7 -10 -15 -10 -8 0 -15 5 -15
10 0 6 7 10 15 10 8 0 15 -4 15 -10z m1192 -42 c-8 -31 -20 -20 -16 15 4 44 4
45 13 22 4 -11 6 -28 3 -37z m58 23 c0 -12 -20 -25 -27 -18 -7 7 6 27 18 27 5
0 9 -4 9 -9z m-1900 -31 c0 -5 -4 -10 -10 -10 -5 0 -10 5 -10 10 0 6 5 10 10
10 6 0 10 -4 10 -10z m-1505 -10 c-3 -5 -10 -10 -16 -10 -5 0 -9 5 -9 10 0 6
7 10 16 10 8 0 12 -4 9 -10z m25 -20 c0 -5 -4 -10 -10 -10 -5 0 -10 5 -10 10
0 6 5 10 10 10 6 0 10 -4 10 -10z m3070 -19 c-6 -12 -17 -21 -25 -21 -23 0
-17 30 8 39 28 11 31 8 17 -18z m-2970 4 c-7 -8 -17 -15 -22 -15 -6 0 -5 7 2
15 7 8 17 15 22 15 6 0 5 -7 -2 -15z m1980 -18 c0 -10 -70 -5 -76 5 -3 4 -3
12 0 17 6 10 76 -10 76 -22z m-2143 7 c-3 -3 -12 -4 -19 -1 -8 3 -5 6 6 6 11
1 17 -2 13 -5z m1941 -12 c2 -7 -3 -12 -12 -12 -9 0 -16 7 -16 16 0 17 22 14
28 -4z m-548 -2 c0 -5 -4 -10 -10 -10 -5 0 -10 5 -10 10 0 6 5 10 10 10 6 0
10 -4 10 -10z m-1479 -33 c-8 -8 -11 -7 -11 4 0 20 13 34 18 19 3 -7 -1 -17
-7 -23z m2199 -7 c0 -5 -7 -10 -15 -10 -8 0 -15 5 -15 10 0 6 7 10 15 10 8 0
15 -4 15 -10z m1105 -10 c-3 -5 -10 -10 -16 -10 -5 0 -9 5 -9 10 0 6 7 10 16
10 8 0 12 -4 9 -10z m-1468 -62 c-3 -8 -6 -5 -6 6 -1 11 2 17 5 13 3 -3 4 -12
1 -19z m-495 -5 c-6 -3 -10 -9 -7 -14 4 -5 2 -15 -2 -23 -7 -12 -11 -12 -28 1
-12 9 -15 17 -9 20 6 2 20 10 30 18 10 7 21 11 24 8 3 -3 -1 -8 -8 -10z m568
-23 c0 -5 -2 -10 -4 -10 -3 0 -8 5 -11 10 -3 6 -1 10 4 10 6 0 11 -4 11 -10z
m-1701 -21 c11 -19 11 -21 -3 -16 -11 4 -16 1 -16 -11 0 -9 -5 -33 -10 -53
-10 -35 -12 -36 -35 -25 -27 12 -30 41 -5 41 9 0 15 10 16 25 3 58 28 77 53
39z m-289 -55 c0 -8 -5 -12 -10 -9 -6 4 -8 11 -5 16 9 14 15 11 15 -7z m3266
-40 c-3 -8 -10 -12 -16 -9 -14 9 -12 42 3 48 14 5 21 -17 13 -39z m-3081 -14
c3 -5 -1 -10 -10 -10 -9 0 -13 5 -10 10 3 6 8 10 10 10 2 0 7 -4 10 -10z m35
-24 c0 -8 -7 -16 -15 -20 -15 -5 -21 14 -8 27 11 12 23 8 23 -7z m50 -21 c0
-9 -6 -12 -15 -9 -8 4 -15 10 -15 15 0 5 7 9 15 9 8 0 15 -7 15 -15z m-75 -35
c15 0 27 -51 15 -64 -5 -5 -6 -15 -3 -22 3 -9 -2 -14 -17 -14 -19 0 -22 4 -17
27 3 15 1 38 -4 51 -5 13 -6 29 -2 35 5 8 8 8 11 -1 2 -7 10 -12 17 -12z
m5340 10 c3 -5 1 -10 -4 -10 -6 0 -11 5 -11 10 0 6 2 10 4 10 3 0 8 -4 11 -10z
m-5383 -23 c4 -6 3 -16 -3 -22 -6 -6 -13 -5 -18 4 -7 11 -10 9 -16 -8 -6 -21
-7 -22 -21 -4 -7 10 -14 26 -14 37 0 16 5 17 32 12 18 -3 35 -12 40 -19z
m-142 -12 c0 -29 -3 -30 -24 -9 -22 21 -20 34 4 34 15 0 20 -7 20 -25z m5174
10 c-4 -8 -12 -15 -20 -15 -8 0 -11 6 -8 15 4 8 12 15 20 15 8 0 11 -6 8 -15z
m-4914 -5 c0 -5 -5 -10 -11 -10 -5 0 -7 5 -4 10 3 6 8 10 11 10 2 0 4 -4 4
-10z m684 -2 c-3 -4 -1 -8 5 -8 5 0 12 6 14 13 4 9 8 9 14 1 4 -7 40 -14 78
-18 137 -12 166 -26 131 -61 -9 -9 -16 -12 -16 -6 0 15 -30 14 -31 -1 0 -10
-2 -10 -6 0 -6 16 -24 16 -20 0 1 -7 -15 -15 -40 -18 -23 -3 -49 -12 -58 -20
-14 -12 -18 -12 -26 1 -7 11 -11 12 -18 1 -7 -11 -9 -11 -14 2 -3 8 -1 16 5
18 13 5 -66 44 -111 55 l-34 8 39 21 c38 21 98 29 88 12z m1019 -17 c6 -24 0
-31 -25 -31 -21 0 -24 20 -6 38 17 17 25 15 31 -7z m1277 9 c0 -12 -28 -25
-36 -17 -9 9 6 27 22 27 8 0 14 -5 14 -10z m-1673 -32 c-3 -7 -5 -2 -5 12 0
14 2 19 5 13 2 -7 2 -19 0 -25z m-1322 12 c-3 -5 -1 -10 4 -10 6 0 11 -7 11
-15 0 -8 -7 -15 -15 -15 -15 0 -21 31 -8 43 10 10 15 8 8 -3z m-370 -20 c4 -6
-6 -10 -22 -9 -25 0 -26 1 -8 9 11 5 21 9 22 9 1 1 5 -3 8 -9z m5338 -10 c-3
-11 0 -20 6 -20 6 0 11 5 11 11 0 7 9 0 20 -14 26 -33 25 -47 -4 -47 -26 0
-43 -30 -30 -52 4 -7 9 -24 11 -39 2 -20 -3 -28 -19 -32 -31 -9 -80 3 -74 18
2 7 0 30 -4 51 -8 31 -6 41 7 51 8 7 17 27 19 44 5 40 12 48 25 29 8 -13 11
-13 20 3 13 23 18 22 12 -3z m-5103 -7 c0 -20 32 -53 68 -72 12 -7 20 -16 17
-20 -9 -16 -66 -21 -88 -9 -28 16 -89 38 -104 38 -7 0 -13 -7 -13 -16 0 -11
-8 -14 -32 -12 -29 3 -33 0 -38 -27 -8 -46 -18 -16 -11 35 l6 45 65 3 c51 2
67 0 77 -13 6 -10 16 -14 22 -10 14 8 14 35 1 35 -5 0 -10 9 -10 20 0 13 7 20
20 20 12 0 20 -7 20 -17z m-171 -14 c-16 -10 -23 -4 -14 10 3 6 11 8 17 5 6
-4 5 -9 -3 -15z m1641 -19 c4 -47 1 -52 -32 -50 -48 3 -52 1 -40 -13 8 -10 6
-13 -11 -14 -12 -1 -25 3 -29 10 -12 20 13 37 59 37 l44 0 -7 38 c-4 25 -3 34
4 27 6 -5 11 -21 12 -35z m1561 -33 c-16 -16 -26 20 -10 40 13 15 14 14 17 -7
2 -12 -1 -27 -7 -33z m-2248 36 c-7 -2 -13 -13 -13 -23 0 -26 -16 -34 -24 -13
-7 18 17 44 38 42 6 0 5 -3 -1 -6z m-606 -25 c-3 -8 -6 -5 -6 6 -1 11 2 17 5
13 3 -3 4 -12 1 -19z m643 -8 c0 -5 -4 -10 -10 -10 -5 0 -10 5 -10 10 0 6 5
10 10 10 6 0 10 -4 10 -10z m153 -19 c7 -26 -23 -38 -40 -15 -7 9 -10 21 -7
25 10 16 42 9 47 -10z m-833 -12 c0 -5 -4 -9 -10 -9 -5 0 -10 7 -10 16 0 8 5
12 10 9 6 -3 10 -10 10 -16z m715 11 c-3 -5 -10 -10 -16 -10 -5 0 -9 5 -9 10
0 6 7 10 16 10 8 0 12 -4 9 -10z m240 -11 c0 -15 20 -30 68 -51 37 -17 36 -43
-3 -42 -56 3 -60 4 -60 19 0 8 -9 15 -19 15 -23 0 -36 -16 -21 -25 16 -10 12
-22 -11 -28 -19 -5 -20 -2 -18 51 1 39 -2 56 -9 55 -16 -4 -15 14 1 21 24 9
72 0 72 -15z m111 6 c-11 -8 -27 -15 -35 -15 -13 1 -12 4 3 15 11 8 27 15 35
15 13 -1 12 -4 -3 -15z m362 -4 c-4 -22 -52 -21 -56 1 -2 13 4 16 28 16 23 -1
30 -5 28 -17z m1492 9 c0 -5 -5 -10 -11 -10 -5 0 -7 5 -4 10 3 6 8 10 11 10 2
0 4 -4 4 -10z m-2207 -26 c16 -6 25 -44 10 -44 -25 1 -52 14 -46 23 3 5 -5 18
-18 28 l-24 18 30 -9 c17 -6 38 -13 48 -16z m480 6 c6 -24 6 -24 -27 -7 -27
15 -25 27 5 27 9 0 19 -9 22 -20z m117 -4 c0 -11 -19 -15 -25 -6 -3 5 1 10 9
10 9 0 16 -2 16 -4z m-1450 -27 c0 -4 14 -9 32 -11 37 -3 48 -23 18 -31 -13
-3 -20 -13 -20 -29 1 -20 2 -21 11 -5 5 9 14 17 19 17 13 0 13 -67 0 -75 -5
-3 -10 -15 -10 -26 0 -13 -7 -19 -24 -19 -13 0 -31 -3 -39 -6 -10 -3 -20 3
-27 16 -7 13 -8 20 -3 17 5 -3 15 -2 23 3 13 8 12 11 -4 23 -11 8 -16 19 -12
26 10 15 -3 53 -15 45 -5 -3 -7 -14 -4 -25 4 -10 2 -19 -2 -19 -18 0 -33 25
-33 54 0 16 3 26 6 23 4 -3 15 4 25 17 18 23 59 26 59 5z m1600 -10 c0 -16 -4
-28 -9 -25 -8 5 -3 56 5 56 2 0 4 -14 4 -31z m1440 -5 c0 -13 -4 -24 -10 -24
-5 0 -10 14 -10 31 0 17 4 28 10 24 6 -3 10 -17 10 -31z m-2070 2 c0 -20 -27
-39 -45 -32 -13 5 -13 9 -3 26 14 23 48 27 48 6z m384 -27 c-11 -18 -21 -8
-21 18 0 25 0 25 13 8 7 -10 11 -22 8 -26z m81 11 c-4 -11 -2 -20 4 -20 6 0
11 5 11 12 0 6 3 9 6 6 3 -4 0 -16 -6 -28 -7 -12 -8 -20 -3 -17 5 3 17 -3 26
-14 22 -24 37 -24 44 1 7 25 33 26 33 1 0 -19 23 -35 34 -24 3 4 6 16 7 27 0
15 4 11 14 -14 16 -42 19 -106 5 -115 -6 -4 -10 13 -10 44 0 28 -4 51 -10 51
-5 0 -10 -8 -10 -17 -1 -17 -1 -17 -11 0 -11 18 -64 24 -73 8 -7 -11 -46 -2
-46 10 0 5 -6 9 -13 9 -7 0 -25 6 -40 13 -20 9 -27 19 -27 40 0 32 17 36 22 5
2 -13 8 -21 13 -18 6 3 9 12 8 20 -3 22 5 40 17 40 7 0 9 -8 5 -20z m-1643 -5
c0 -5 -5 -11 -11 -13 -6 -2 -11 4 -11 13 0 9 5 15 11 13 6 -2 11 -8 11 -13z
m478 -6 c0 -5 -4 -9 -10 -9 -5 0 -10 7 -10 16 0 8 5 12 10 9 6 -3 10 -10 10
-16z m1284 15 c28 -11 17 -24 -19 -24 -33 0 -43 8 -28 23 8 9 27 9 47 1z
m-1415 -35 c11 -25 11 -33 1 -39 -7 -5 -18 -6 -24 -4 -16 6 -38 44 -26 44 5 0
10 7 10 15 0 26 25 16 39 -16z m5401 1 c0 -5 -4 -10 -10 -10 -5 0 -10 5 -10
10 0 6 5 10 10 10 6 0 10 -4 10 -10z m-4207 -20 c5 -4 -4 -11 -19 -14 -25 -7
-43 4 -44 27 0 8 51 -2 63 -13z m3707 0 c0 -5 -4 -10 -10 -10 -5 0 -10 5 -10
10 0 6 5 10 10 10 6 0 10 -4 10 -10z m402 -2 c-9 -9 -15 -9 -24 0 -9 9 -7 12
12 12 19 0 21 -3 12 -12z m-4317 -28 c3 -5 1 -10 -4 -10 -6 0 -11 5 -11 10 0
6 2 10 4 10 3 0 8 -4 11 -10z m4325 -11 c0 -6 -10 -14 -22 -19 -23 -9 -23 -9
-1 -9 18 -1 21 -6 19 -33 -2 -18 -4 -41 -5 -51 0 -10 -5 -15 -11 -12 -6 4 -10
-23 -10 -74 0 -54 4 -81 13 -85 10 -5 10 -7 0 -12 -19 -9 -17 -48 2 -40 8 3
15 1 15 -4 0 -6 -7 -10 -15 -10 -8 0 -15 -4 -15 -10 0 -5 2 -10 4 -10 2 0 11
-2 19 -5 10 -4 14 4 15 31 1 21 6 40 10 43 5 3 12 40 15 81 19 248 53 311 59
110 2 -85 -1 -112 -15 -143 -12 -25 -16 -48 -12 -67 4 -18 -1 -54 -10 -87 -10
-32 -20 -74 -22 -93 -3 -20 -14 -43 -26 -52 -21 -16 -23 -16 -35 0 -16 21 -12
68 6 64 7 -1 12 8 12 22 0 14 5 28 10 31 18 11 10 25 -15 25 -33 0 -56 37 -51
81 3 19 8 102 11 184 4 83 9 153 11 157 6 9 44 -2 44 -13z m-5483 -14 c2 -6
-9 -11 -24 -10 -14 0 -28 5 -30 11 -2 6 8 11 23 10 15 -1 29 -6 31 -11z m1850
-22 c0 -10 -6 -24 -14 -31 -11 -11 -13 -9 -13 11 0 14 6 28 13 30 6 3 12 6 13
6 0 1 1 -7 1 -16z m1240 -13 c2 -11 -2 -20 -7 -20 -6 0 -10 12 -10 27 0 29 12
24 17 -7z m1813 6 c0 -7 9 -16 21 -19 31 -8 21 -43 -11 -39 -32 5 -62 36 -54
56 8 20 44 21 44 2z m-5113 -28 c-3 -7 -5 -2 -5 12 0 14 2 19 5 13 2 -7 2 -19
0 -25z m1158 6 c8 3 15 3 15 0 0 -8 -39 -48 -42 -43 -28 46 -29 71 -2 48 8 -6
21 -9 29 -5z m453 -12 c4 -14 -34 -16 -43 -2 -3 6 -18 10 -33 11 l-27 1 25 7
c30 9 72 0 78 -17z m3784 6 c-6 -6 -15 -8 -19 -4 -4 4 -1 11 7 16 8 5 17 7 19
4 3 -2 -1 -10 -7 -16z m-3678 -19 c-10 -16 -24 -9 -24 12 0 18 2 19 15 9 8 -7
12 -16 9 -21z m-480 6 c7 -19 -3 -47 -17 -42 -16 5 -18 57 -2 57 7 0 15 -7 19
-15z m-1008 -40 c-3 -8 -12 -12 -21 -9 -18 7 -20 41 -2 47 15 5 30 -19 23 -38z
m802 28 c-2 -10 -13 -19 -25 -21 -17 -3 -20 1 -16 17 7 26 46 29 41 4z m4210
0 c15 -3 33 -13 41 -20 11 -12 15 -12 22 -1 5 7 9 10 9 6 0 -19 5 -24 31 -35
16 -7 29 -17 29 -22 0 -15 49 -65 57 -58 3 4 15 -8 26 -25 12 -21 15 -34 8
-36 -15 -5 -14 -61 2 -67 14 -6 17 -142 3 -164 -7 -10 -6 -12 4 -6 10 6 12 -1
6 -35 -4 -24 -12 -51 -19 -59 -7 -8 -11 -16 -9 -18 7 -10 0 -21 -18 -26 -15
-4 -20 0 -20 13 0 10 5 20 11 22 5 2 11 24 12 48 2 43 1 45 -25 44 -16 -1 -29
4 -29 10 -1 6 -3 27 -5 46 -1 19 -7 55 -12 80 -7 33 -10 38 -11 18 0 -16 -6
-28 -12 -28 -13 0 -2 58 14 78 8 10 3 21 -22 44 -25 24 -30 33 -19 39 8 6 -3
8 -30 7 -23 -1 -48 4 -54 10 -9 9 -6 12 15 12 35 0 35 18 0 26 -32 8 -48 23
-68 60 -15 29 -2 57 23 49 8 -3 26 -8 40 -12z m-5121 -50 c-10 -10 -47 9 -47
23 0 8 4 13 9 9 6 -3 16 1 23 9 11 12 13 10 16 -11 2 -14 1 -27 -1 -30z m5283
47 c0 -5 -4 -10 -10 -10 -5 0 -10 5 -10 10 0 6 5 10 10 10 6 0 10 -4 10 -10z
m-4320 -29 c0 -4 -3 -11 -7 -14 -8 -9 -34 13 -28 24 6 9 35 1 35 -10z m825
-38 c-4 -12 -8 -14 -17 -5 -9 9 -8 18 3 39 14 26 14 26 17 4 2 -12 1 -30 -3
-38z m243 38 c3 -10 -2 -11 -18 -6 -17 5 -21 4 -15 -5 5 -7 4 -11 -1 -8 -5 3
-17 8 -27 11 -10 4 -15 12 -12 17 9 15 67 8 73 -9z m-2125 -43 c4 -29 2 -38
-9 -38 -10 0 -14 13 -14 47 0 54 14 48 23 -9z m163 5 c-10 -10 -19 5 -10 18 6
11 8 11 12 0 2 -7 1 -15 -2 -18z m1019 -41 c-3 -3 -11 0 -18 7 -9 10 -8 11 6
5 10 -3 15 -9 12 -12z m575 -2 c0 -11 -4 -20 -9 -20 -5 0 -7 9 -4 20 3 11 7
20 9 20 2 0 4 -9 4 -20z m145 0 c-3 -5 -15 -10 -25 -10 -10 0 -22 5 -25 10 -4
6 7 10 25 10 18 0 29 -4 25 -10z m2842 -6 c-3 -3 -12 -4 -19 -1 -8 3 -5 6 6 6
11 1 17 -2 13 -5z m-3732 -14 c3 -5 18 -10 33 -10 19 0 23 -3 13 -9 -7 -5 -10
-14 -7 -20 5 -7 -2 -11 -18 -11 -14 0 -30 -8 -35 -19 -7 -12 -19 -17 -36 -16
-14 2 -25 -1 -25 -6 0 -12 57 -12 65 1 3 6 15 10 26 10 17 0 18 -3 9 -20 -9
-16 -18 -20 -43 -16 -101 15 -116 16 -130 2 -15 -15 -67 -10 -67 6 0 5 14 15
30 21 17 6 30 15 30 19 0 4 8 8 17 8 13 0 14 -3 5 -12 -7 -7 -12 -16 -12 -22
0 -6 5 -5 11 1 6 6 18 9 25 6 9 -3 14 2 14 15 0 11 -6 22 -12 25 -7 2 -9 8 -5
13 4 5 12 2 16 -5 11 -16 51 -21 69 -8 10 8 9 15 -3 33 -14 22 -14 24 4 24 11
0 23 -4 26 -10z m-828 -6 c-3 -3 -12 -4 -19 -1 -8 3 -5 6 6 6 11 1 17 -2 13
-5z m40 -38 c-10 -26 -22 -18 -24 16 -2 29 -1 30 14 16 8 -9 13 -24 10 -32z
m-77 20 c0 -8 -10 -22 -21 -30 -16 -11 -22 -25 -22 -55 0 -32 -3 -39 -18 -38
-11 1 -19 8 -19 16 0 24 23 81 33 81 5 0 7 6 4 14 -5 13 5 20 36 25 4 0 7 -5
7 -13z m4620 -12 c0 -8 4 -14 8 -14 5 0 14 -29 20 -65 10 -51 10 -69 0 -85 -7
-11 -16 -20 -21 -20 -4 0 -19 -12 -32 -26 -18 -19 -23 -35 -22 -65 2 -25 -3
-45 -12 -52 -12 -10 -14 -8 -9 9 4 18 1 21 -17 20 -16 -1 -21 -6 -17 -18 2
-10 0 -18 -6 -18 -6 0 -12 -10 -14 -22 -4 -31 -25 -33 -30 -4 -4 19 0 27 13
31 29 9 23 26 -6 19 -15 -4 -25 -2 -25 5 0 6 6 12 13 12 6 1 -1 4 -18 8 -26 5
-30 11 -32 43 -2 28 2 37 17 41 12 3 20 14 20 27 0 35 36 78 65 78 35 0 44 11
21 28 -15 10 -23 11 -33 2 -27 -22 -25 1 2 26 34 31 45 33 45 6 0 -11 5 -20
11 -20 6 0 9 7 5 15 -8 21 3 45 20 45 8 0 14 5 14 11 0 5 5 7 10 4 6 -3 10
-13 10 -21z m-3662 -1 c0 -10 2 -25 6 -34 4 -10 1 -23 -8 -32 -20 -20 -20 -27
-1 -27 8 0 15 4 15 9 0 5 11 12 25 15 15 4 27 16 31 30 5 19 11 23 37 21 18
-2 39 -3 48 -4 11 -1 18 -12 21 -31 5 -35 -11 -53 -19 -22 -2 11 -14 23 -25
25 -11 3 -17 3 -14 0 3 -4 -2 -15 -11 -26 -18 -19 -17 -20 10 -13 19 4 26 3
22 -4 -3 -5 -21 -10 -39 -10 -26 0 -35 -5 -41 -22 -20 -63 -4 -77 92 -78 39 0
75 -5 78 -10 4 -6 10 -8 15 -5 5 3 12 0 15 -6 4 -5 13 -8 21 -5 21 8 26 -11 6
-26 -26 -18 -32 -41 -17 -61 15 -21 99 -35 110 -18 11 18 -4 27 -24 14 -10 -6
-22 -8 -28 -5 -11 8 -12 52 -1 52 5 0 13 10 18 23 8 21 9 21 9 -5 1 -31 27
-50 60 -41 16 4 30 -3 52 -26 17 -18 28 -38 26 -44 -4 -14 -90 -10 -95 4 -2 4
-13 3 -24 -4 -16 -9 -22 -9 -25 1 -6 17 -23 15 -23 -3 0 -8 7 -15 15 -15 8 0
15 -7 15 -16 0 -12 6 -15 25 -10 15 4 25 2 25 -4 0 -6 8 -10 17 -8 16 3 18 -6
18 -66 0 -51 -4 -71 -14 -74 -10 -3 -12 0 -8 12 5 11 1 16 -13 16 -11 0 -20 6
-20 14 0 8 -7 16 -15 20 -8 3 -15 12 -15 20 0 8 -9 17 -19 21 -11 3 -26 21
-36 40 -9 19 -20 35 -25 35 -6 0 -10 7 -10 15 0 8 -6 15 -14 15 -8 0 -34 18
-58 40 -23 23 -54 44 -68 47 -14 3 -34 12 -45 19 -23 16 -49 19 -40 4 3 -5 2
-10 -3 -10 -6 0 -12 7 -16 15 -3 8 -17 15 -31 15 -30 0 -32 10 -5 33 22 18 27
47 9 47 -7 0 -9 9 -6 21 3 12 0 22 -9 25 -52 16 -51 14 -31 28 9 7 17 18 17
24 0 20 20 62 29 62 5 0 9 -8 9 -17z m792 -8 c0 -29 -3 -30 -24 -9 -22 21 -20
34 4 34 15 0 20 -7 20 -25z m-750 -16 c0 -17 -4 -28 -10 -24 -5 3 -8 16 -6 28
6 28 5 27 11 27 3 0 5 -14 5 -31z m-325 1 c3 -5 -1 -10 -10 -10 -9 0 -13 5
-10 10 3 6 8 10 10 10 2 0 7 -4 10 -10z m1019 -4 c-3 -8 -12 -12 -20 -9 -21 8
-17 23 6 23 13 0 18 -5 14 -14z m-509 -6 c4 -6 12 -10 18 -9 29 3 35 -4 41
-45 4 -24 16 -52 26 -61 20 -18 29 -61 10 -50 -5 3 -10 15 -10 26 0 14 -7 19
-25 19 -18 0 -25 5 -25 19 0 38 -22 81 -41 81 -10 0 -19 7 -19 15 0 17 16 20
25 5z m417 -15 c-2 -14 -8 -25 -13 -25 -10 0 -12 34 -2 43 13 14 20 6 15 -18z
m-1552 1 c0 -27 -12 -45 -26 -39 -8 3 -22 -1 -32 -8 -14 -11 -15 -11 -4 1 6 8
12 22 12 33 0 10 4 16 9 12 5 -3 12 -1 16 5 9 15 25 12 25 -4z m1433 -16 c10
0 47 -33 47 -42 0 -5 -7 -8 -15 -8 -8 0 -15 5 -15 10 0 6 -4 10 -10 10 -16 0
-59 49 -47 53 7 3 17 -2 23 -9 6 -8 14 -14 17 -14z m417 10 c0 -5 -4 -10 -10
-10 -5 0 -10 5 -10 10 0 6 5 10 10 10 6 0 10 -4 10 -10z m-1357 -47 c-3 -7
-14 -13 -24 -13 -10 0 -19 -7 -19 -15 0 -12 -3 -12 -18 3 -22 20 -18 35 7 27
10 -3 22 3 31 15 15 21 33 8 23 -17z m1027 16 c0 -5 -4 -9 -8 -9 -5 0 -9 7 -9
15 0 8 4 12 9 9 4 -3 8 -9 8 -15z m-377 -46 c4 -20 2 -33 -4 -33 -11 0 -15 9
-23 60 -6 30 -5 33 8 20 7 -8 16 -30 19 -47z m3707 47 c0 -5 -5 -10 -11 -10
-5 0 -7 5 -4 10 3 6 8 10 11 10 2 0 4 -4 4 -10z m-3515 -29 c-3 -6 -11 -11
-17 -11 -6 0 -6 6 2 15 14 17 26 13 15 -4z m3955 9 c0 -5 -4 -10 -10 -10 -5 0
-10 5 -10 10 0 6 5 10 10 10 6 0 10 -4 10 -10z m-3450 -16 c0 -8 -4 -12 -10
-9 -5 3 -10 10 -10 16 0 5 5 9 10 9 6 0 10 -7 10 -16z m3025 -25 c4 -18 3 -35
-4 -42 -8 -8 -11 -6 -11 9 0 10 -3 29 -6 42 -4 12 -2 22 4 22 6 0 13 -14 17
-31z m-3997 -19 c16 -1 16 -2 0 -14 -10 -7 -18 -18 -18 -25 0 -10 -7 -13 -27
-10 -5 1 -7 5 -6 10 2 4 -3 6 -10 3 -7 -2 -30 5 -52 16 -21 11 -46 20 -54 20
-10 0 -11 3 -5 9 15 16 148 18 152 4 2 -7 11 -13 20 -13z m2386 24 c24 -9 9
-24 -25 -24 -29 0 -40 14 -16 23 18 8 23 8 41 1z m-3268 -38 c-4 -21 -44 -78
-65 -93 -21 -14 -22 -13 -18 9 2 12 2 17 0 11 -6 -18 -33 -16 -33 2 0 8 -6 15
-12 15 -7 1 0 8 16 16 24 13 30 14 38 2 7 -9 8 -8 4 6 -4 11 0 23 10 30 20 15
62 16 60 2z m5144 -37 c0 -29 -5 -41 -21 -50 -31 -16 -42 1 -34 53 6 41 9 44
31 40 20 -4 24 -10 24 -43z m-3645 22 c-3 -6 -11 -11 -17 -11 -6 0 -6 6 2 15
14 17 26 13 15 -4z m-285 -1 c0 -5 -2 -10 -4 -10 -3 0 -8 5 -11 10 -3 6 -1 10
4 10 6 0 11 -4 11 -10z m-1149 -47 c-8 -15 -10 -15 -11 -2 0 17 10 32 18 25 2
-3 -1 -13 -7 -23z m3139 13 c0 -3 -4 -8 -10 -11 -5 -3 -10 -1 -10 4 0 6 5 11
10 11 6 0 10 -2 10 -4z m-3238 -65 c-5 -3 -15 -25 -22 -48 -11 -36 -11 -44 4
-58 25 -26 21 -53 -9 -50 -14 2 -27 -1 -31 -6 -3 -5 4 -9 15 -9 29 0 36 -19
13 -36 -15 -10 -23 -31 -28 -72 -5 -42 -9 -52 -15 -37 -6 17 -8 16 -8 -9 -1
-16 -8 -34 -17 -40 -11 -8 -16 -30 -16 -75 -1 -34 -7 -68 -13 -75 -6 -6 -14
-18 -17 -26 -4 -8 -5 10 -3 40 1 30 6 63 10 73 9 22 -3 37 -14 18 -6 -9 -11
-10 -15 -2 -4 6 7 24 24 41 34 33 40 76 16 123 -8 15 -11 27 -6 27 4 0 10 -6
13 -12 7 -19 18 -4 27 37 8 34 6 38 -19 48 -36 16 -28 49 14 53 37 4 44 12 47
57 2 25 7 36 16 32 7 -2 18 4 25 15 7 12 14 15 16 9 2 -6 -1 -14 -7 -18z
m5488 -39 c0 -21 -7 -47 -15 -58 -13 -17 -14 -15 -15 32 0 28 3 54 7 57 15 16
23 5 23 -31z m-653 -4 c13 -12 23 -29 23 -39 0 -22 47 -79 65 -79 8 0 21 -10
29 -22 9 -12 16 -19 16 -16 0 4 14 -6 30 -22 34 -33 73 -38 104 -15 40 30 78
8 51 -28 -16 -22 -80 -34 -98 -19 -10 9 -19 8 -35 -4 -20 -14 -22 -13 -28 11
-8 31 -20 32 -28 3 -5 -19 -8 -20 -15 -8 -6 8 -13 12 -16 8 -10 -10 5 -49 17
-42 5 3 2 -8 -6 -25 -9 -17 -16 -33 -16 -36 -1 -29 -17 -68 -36 -86 -13 -12
-24 -30 -24 -40 0 -9 -7 -19 -15 -23 -9 -3 -15 0 -15 8 0 8 -3 21 -6 30 -3 8
3 22 15 33 12 9 21 22 21 27 0 6 -5 5 -12 -2 -18 -18 -26 -15 -30 10 -4 28
-24 34 -31 9 -3 -14 1 -22 14 -26 29 -10 23 -30 -16 -48 -28 -13 -34 -21 -32
-44 2 -21 -3 -28 -23 -34 -23 -6 -24 -7 -6 -14 13 -6 21 -4 24 3 2 7 10 12 18
12 10 0 11 6 4 25 -11 28 -3 36 28 28 15 -4 22 -13 22 -30 0 -13 4 -21 10 -18
6 3 10 1 10 -4 0 -6 7 -11 15 -11 8 0 15 -4 15 -9 0 -5 9 -11 20 -14 16 -4 20
-12 18 -41 -2 -26 -7 -36 -18 -34 -8 1 -20 -1 -27 -5 -6 -4 -43 -8 -81 -8 -63
-1 -69 -3 -65 -20 5 -19 -12 -28 -19 -9 -4 14 -95 23 -103 10 -3 -5 -17 -10
-29 -10 -13 0 -29 -7 -36 -15 -7 -9 -18 -14 -24 -12 -17 6 -79 -22 -90 -40 -7
-13 -10 -13 -17 -2 -5 9 -29 15 -61 15 -29 1 -56 2 -60 3 -25 3 5 138 33 146
18 6 18 18 -4 64 -10 19 -8 25 7 37 10 7 16 20 13 28 -4 9 3 16 20 21 16 4 23
11 19 20 -3 8 -2 14 2 14 30 -5 32 -1 33 65 1 17 4 24 8 17 5 -8 12 -3 20 15
9 22 14 24 26 14 12 -10 13 -16 4 -26 -9 -11 -8 -14 5 -14 9 0 19 12 22 27 7
25 8 25 15 8 7 -17 8 -18 8 -2 1 9 6 17 12 17 5 0 7 5 4 10 -3 6 1 10 9 10 9
0 16 5 16 10 0 6 -7 10 -15 10 -8 0 -15 9 -15 21 0 11 4 18 9 15 5 -3 21 1 37
8 16 8 57 17 92 21 35 4 60 10 57 13 -3 4 9 12 27 18 l33 11 -2 64 c-2 87 9
99 54 57z m-4773 -9 c-3 -5 -10 -7 -15 -3 -5 3 -7 10 -3 15 3 5 10 7 15 3 5
-3 7 -10 3 -15z m-54 -15 c0 -8 -4 -14 -10 -14 -5 0 -10 9 -10 21 0 11 5 17
10 14 6 -3 10 -13 10 -21z m3160 2 c0 -16 -18 -31 -27 -22 -8 8 5 36 17 36 5
0 10 -6 10 -14z m-2356 -12 c3 -9 13 -14 20 -11 8 3 17 0 20 -8 7 -19 -19 -25
-74 -20 -35 4 -52 0 -82 -20 -20 -14 -59 -30 -85 -35 -26 -6 -50 -14 -53 -19
-7 -10 -110 -62 -110 -56 0 5 -58 -22 -69 -31 -2 -2 2 -11 9 -19 16 -19 -1
-41 -24 -32 -32 13 -12 143 27 175 7 6 22 13 33 15 19 4 28 7 89 30 17 7 36
10 42 9 7 -2 21 1 30 7 10 5 36 6 58 2 30 -5 43 -3 53 9 8 8 11 10 8 4 -7 -14
83 -24 90 -12 3 5 0 8 -5 8 -6 0 -11 5 -11 10 0 16 27 11 34 -6z m930 -39 c-4
-8 -8 -15 -10 -15 -2 0 -4 7 -4 15 0 8 4 15 10 15 5 0 7 -7 4 -15z m3471 -43
c-8 -8 -25 10 -19 20 4 6 9 5 15 -3 4 -7 6 -15 4 -17z m-5428 -14 c-3 -7 -5
-2 -5 12 0 14 2 19 5 13 2 -7 2 -19 0 -25z m62 3 c-15 -5 -22 6 -14 19 6 9 10
9 16 -1 5 -8 4 -15 -2 -18z m3281 -26 c0 -14 -4 -25 -10 -25 -5 0 -10 11 -10
25 0 14 5 25 10 25 6 0 10 -11 10 -25z m-1430 -6 c0 -12 -4 -18 -11 -13 -6 3
-15 0 -20 -7 -6 -10 -9 -6 -9 14 0 20 5 27 20 27 14 0 20 -7 20 -21z m-1873
-35 c-9 -9 -28 6 -21 18 4 6 10 6 17 -1 6 -6 8 -13 4 -17z m1817 -46 c-4 -13
-7 -26 -6 -30 1 -5 -3 -8 -8 -8 -20 0 -22 28 -4 49 22 25 29 21 18 -11z
m-1834 -28 c1 -83 0 -86 -10 -70 -11 17 -13 80 -4 105 9 24 13 15 14 -35z
m1000 0 c0 -5 16 -10 35 -10 19 0 35 5 35 10 0 11 67 14 72 3 2 -5 23 -21 48
-37 25 -16 49 -35 53 -43 6 -10 22 -12 66 -7 52 6 59 4 88 -22 l32 -27 -27
-14 c-14 -8 -53 -14 -87 -14 -33 -1 -64 -4 -70 -9 -23 -18 -123 -28 -220 -21
-22 1 -87 -1 -145 -5 -58 -4 -116 -8 -130 -8 -14 0 -31 -9 -39 -19 -11 -15
-15 -16 -22 -6 -6 10 -11 11 -16 3 -13 -17 -111 -54 -127 -48 -9 3 -16 1 -16
-5 0 -6 -9 -11 -19 -11 -11 0 -21 -6 -24 -12 -2 -7 -8 -1 -12 14 -8 33 18 118
44 142 9 9 33 19 52 22 19 4 36 10 39 14 8 12 206 80 232 80 41 0 138 22 138
31 0 5 5 9 10 9 6 0 10 -4 10 -10z m2258 -17 c1 -15 7 -30 13 -34 8 -4 9 -20
5 -43 -8 -40 -26 -49 -26 -12 0 20 -4 23 -21 19 -16 -4 -20 -2 -17 8 3 8 12
13 22 11 9 -2 16 4 16 13 0 8 -9 15 -20 15 -25 0 -25 5 -2 29 23 26 27 25 30
-6z m-1578 -24 c0 -11 -4 -17 -10 -14 -5 3 -10 15 -10 26 0 11 5 17 10 14 6
-3 10 -15 10 -26z m3801 -53 c-12 -12 -21 -28 -21 -34 0 -7 -7 -12 -15 -12
-15 0 -34 -27 -32 -45 1 -5 -6 -11 -15 -13 -11 -2 -18 3 -18 12 0 9 7 16 16
16 11 0 14 6 9 20 -5 14 -2 20 9 20 9 0 16 7 16 15 0 9 15 30 33 48 28 29 32
31 35 14 2 -10 -6 -29 -17 -41z m-5376 -35 c3 -5 1 -12 -5 -16 -5 -3 -10 1
-10 9 0 18 6 21 15 7z m1765 -16 c0 -14 -38 -27 -53 -18 -6 4 0 10 12 15 12 4
20 12 16 18 -3 6 1 7 9 4 9 -3 16 -12 16 -19z m-225 -57 c-26 -20 -45 -23 -45
-8 0 6 4 10 9 10 5 0 11 9 14 21 5 17 8 18 25 8 20 -12 20 -13 -3 -31z m1631
17 c-1 -14 -6 -28 -9 -32 -4 -3 -7 -12 -7 -20 0 -7 -9 -22 -20 -33 l-20 -20 0
21 c0 11 5 17 10 14 6 -3 10 3 10 14 0 10 -5 21 -11 23 -9 3 33 58 45 58 2 0
3 -11 2 -25z m2084 -5 c0 -35 -41 -80 -71 -80 -11 0 -19 -4 -19 -8 0 -13 -93
-52 -115 -48 -17 3 -19 9 -16 47 4 50 20 90 21 51 0 -38 25 -20 28 21 3 29 7
37 23 37 12 0 19 -7 19 -19 0 -10 7 -22 16 -25 12 -5 15 -2 10 10 -5 13 0 16
33 12 29 -2 42 1 50 14 16 26 21 22 21 -12z m-263 -55 c0 -8 -4 -15 -9 -15 -4
0 -8 7 -8 15 0 8 4 15 8 15 5 0 9 -7 9 -15z m-612 -24 c3 -5 1 -13 -5 -16 -15
-9 -43 3 -35 15 8 13 32 13 40 1z m-2721 -17 c17 -6 22 -34 7 -34 -5 0 -21 6
-36 14 -17 9 -22 16 -13 19 19 8 24 8 42 1z m462 -21 c-7 -7 -26 7 -26 19 0 6
6 6 15 -2 9 -7 13 -15 11 -17z m-726 7 c0 -7 6 -7 20 0 24 13 28 -6 7 -34 -12
-17 -15 -17 -30 -2 -14 15 -17 14 -31 -6 -22 -31 -28 -19 -9 20 15 30 43 44
43 22z m370 -10 c11 -11 19 -30 19 -42 -1 -17 -2 -19 -6 -5 -5 21 -23 23 -23
2 0 -19 -14 -19 -34 1 -21 20 -20 32 2 30 10 0 16 6 16 17 -2 22 2 21 26 -3z
m-1395 -20 c3 -5 -1 -10 -9 -10 -9 0 -16 -7 -16 -15 0 -10 -10 -15 -28 -15
-15 0 -32 -4 -37 -9 -6 -5 -28 -14 -50 -21 -39 -13 -93 -45 -107 -65 -5 -6 -8
-2 -8 7 0 22 30 58 47 58 7 0 13 7 13 15 0 10 10 15 30 15 16 0 33 7 38 16 13
24 115 43 127 24z m2396 -31 c-9 -23 -10 -22 -10 11 -1 23 2 31 9 24 7 -7 7
-19 1 -35z m-1791 17 c0 -17 13 -22 72 -25 40 -2 47 0 42 13 -3 9 -15 16 -27
16 -11 0 -18 3 -15 6 9 8 78 -7 78 -18 0 -16 -29 -40 -40 -33 -14 9 -25 -24
-12 -37 7 -7 19 -4 38 8 18 13 46 19 84 19 49 0 56 2 52 17 -3 12 1 18 12 18
9 0 16 5 16 10 0 6 11 10 25 10 36 0 36 -45 -1 -54 -22 -6 -24 -9 -13 -23 8
-8 14 -31 15 -50 1 -26 -3 -33 -15 -31 -9 2 -15 12 -13 23 2 19 2 19 -11 3
-19 -24 -43 -23 -50 2 -3 14 -14 20 -32 20 -20 0 -26 4 -22 14 4 10 1 13 -9 9
-10 -4 -14 -14 -11 -30 2 -13 1 -25 -2 -28 -4 -2 -5 -20 -3 -40 3 -27 8 -35
21 -33 9 2 15 11 15 21 -2 19 -2 19 20 11 18 -7 22 -39 6 -49 -5 -3 -10 -19
-10 -36 0 -16 -4 -29 -10 -29 -5 0 -7 -6 -4 -14 3 -8 -4 -16 -19 -20 -20 -5
-23 -11 -19 -31 3 -20 0 -25 -16 -25 -18 0 -21 6 -19 43 2 36 -1 42 -16 39
-12 -2 -20 4 -24 16 -5 21 -59 36 -69 20 -3 -5 -20 -8 -37 -6 -27 2 -33 -1
-35 -19 -5 -31 -18 -29 -27 5 -4 15 -10 21 -12 15 -9 -24 -23 -13 -23 16 0 23
-5 30 -22 33 -40 6 -30 26 19 36 26 6 51 8 55 6 4 -3 25 0 47 6 27 7 46 20 58
40 9 17 21 30 25 30 14 0 9 16 -13 39 -19 20 -22 21 -38 7 -10 -9 -23 -16 -29
-16 -7 0 -12 -6 -12 -14 0 -8 -5 -16 -12 -18 -21 -7 -112 15 -128 31 -13 13
-13 14 3 8 17 -7 27 -2 68 36 10 9 24 17 30 17 6 0 17 7 25 15 19 19 44 19 44
1z m2120 -36 c6 0 10 -16 8 -36 -2 -29 -4 -33 -14 -20 -9 13 -11 10 -12 -16
-1 -39 -23 -62 -51 -53 -15 4 -21 15 -21 36 0 33 25 89 40 89 5 0 12 10 16 22
l7 23 8 -23 c5 -12 13 -22 19 -22z m-1120 -5 c11 -13 9 -15 -13 -15 -27 0 -52
-23 -42 -40 4 -7 -3 -9 -20 -6 -40 7 -41 12 -7 46 33 33 63 38 82 15z m-1354
-62 c-10 -10 -19 5 -10 18 6 11 8 11 12 0 2 -7 1 -15 -2 -18z m129 17 c4 -6
11 -8 16 -5 5 4 9 -3 9 -13 0 -21 0 -21 -88 4 -7 2 -10 8 -7 14 8 13 62 13 70
0z m3595 0 c0 -5 -2 -10 -4 -10 -3 0 -8 5 -11 10 -3 6 -1 10 4 10 6 0 11 -4
11 -10z m-2260 -4 c0 -3 -4 -8 -10 -11 -5 -3 -10 -1 -10 4 0 6 5 11 10 11 6 0
10 -2 10 -4z m1117 -2 c-3 -3 -2 -17 3 -30 5 -13 6 -24 1 -24 -5 0 -11 11 -13
25 -5 23 -1 35 10 35 3 0 3 -3 -1 -6z m-2887 -33 c0 -6 -4 -13 -10 -16 -5 -3
-10 1 -10 9 0 9 5 16 10 16 6 0 10 -4 10 -9z m1827 -13 c-3 -8 -6 -5 -6 6 -1
11 2 17 5 13 3 -3 4 -12 1 -19z m-1577 -10 c0 -16 -3 -19 -11 -11 -6 6 -8 16
-5 22 11 17 16 13 16 -11z m2630 -19 c0 -18 -35 -5 -38 14 -3 16 -1 17 17 7
12 -6 21 -15 21 -21z m-3267 14 c-7 -2 -13 -17 -13 -31 -1 -24 -2 -25 -11 -9
-14 24 -4 47 18 46 11 0 13 -3 6 -6z m187 -18 c0 -22 -37 -38 -44 -19 -10 27
-7 34 19 34 15 0 25 -6 25 -15z m3026 -41 c-6 -16 -36 -19 -36 -4 0 5 8 19 18
30 14 18 18 18 20 5 2 -9 1 -23 -2 -31z m-2369 4 c-3 -7 -5 -2 -5 12 0 14 2
19 5 13 2 -7 2 -19 0 -25z m2230 26 c-3 -3 -12 -4 -19 -1 -8 3 -5 6 6 6 11 1
17 -2 13 -5z m30 -26 c-3 -8 -6 -5 -6 6 -1 11 2 17 5 13 3 -3 4 -12 1 -19z
m-312 2 c3 -5 -1 -10 -10 -10 -9 0 -13 5 -10 10 3 6 8 10 10 10 2 0 7 -4 10
-10z m292 -22 c-3 -8 -6 -5 -6 6 -1 11 2 17 5 13 3 -3 4 -12 1 -19z m-1667 2
c0 -5 -2 -10 -4 -10 -3 0 -8 5 -11 10 -3 6 -1 10 4 10 6 0 11 -4 11 -10z m730
1 c0 -6 -4 -13 -10 -16 -5 -3 -10 1 -10 9 0 9 5 16 10 16 6 0 10 -4 10 -9z
m-2162 -37 c-14 -14 -15 -14 -10 11 3 19 8 23 15 16 8 -8 7 -16 -5 -27z m162
10 c0 -2 -7 -4 -15 -4 -8 0 -15 4 -15 10 0 5 7 7 15 4 8 -4 15 -8 15 -10z
m2978 -21 c0 -21 2 -45 4 -53 2 -10 -6 -16 -27 -18 -29 -3 -30 -1 -30 38 0 30
5 42 18 46 9 3 17 10 17 15 0 5 4 9 9 9 6 0 10 -17 9 -37z m-868 1 c0 -8 -4
-12 -10 -9 -5 3 -10 13 -10 21 0 8 5 12 10 9 6 -3 10 -13 10 -21z m-2323 -36
c-3 -7 -5 -2 -5 12 0 14 2 19 5 13 2 -7 2 -19 0 -25z m2014 10 c9 -17 9 -23 0
-26 -6 -2 -9 -8 -5 -13 6 -11 -24 -24 -34 -15 -3 4 0 11 7 15 10 6 10 13 2 28
-10 20 -6 33 10 33 5 0 14 -10 20 -22z m-2052 -70 c0 -57 -2 -68 -10 -49 -8
21 -2 121 7 121 2 0 4 -33 3 -72z m2317 43 c-1 -37 -26 -63 -26 -27 0 29 9 56
20 56 4 0 7 -13 6 -29z m729 19 c3 -5 1 -10 -4 -10 -6 0 -11 5 -11 10 0 6 2
10 4 10 3 0 8 -4 11 -10z m-825 -22 c0 -30 -15 -54 -24 -40 -8 14 3 62 15 62
5 0 9 -10 9 -22z m1104 7 c3 -9 0 -15 -9 -15 -16 0 -27 14 -18 24 10 10 21 7
27 -9z m-3044 -5 c0 -5 -4 -10 -10 -10 -5 0 -10 5 -10 10 0 6 5 10 10 10 6 0
10 -4 10 -10z m-58 -55 c-4 -37 -8 -40 -31 -26 -10 7 -8 14 10 35 12 14 23 26
24 26 0 0 -1 -16 -3 -35z m2968 0 c16 -19 5 -34 -20 -28 -22 6 -22 6 -14 27 8
20 18 20 34 1z m-1170 -55 c13 -12 31 -18 41 -15 9 3 20 2 23 -3 7 -11 -32
-54 -44 -47 -4 3 -10 -1 -13 -9 -9 -22 -44 -8 -51 20 -4 14 -3 30 1 37 4 7 8
15 9 20 4 22 5 22 34 -3z m-1810 -15 c0 -16 -6 -25 -15 -25 -28 0 -18 40 13
49 1 1 2 -10 2 -24z m2574 16 c3 -5 -1 -11 -9 -15 -15 -6 -29 7 -18 18 9 9 21
8 27 -3z m153 -44 c-14 -26 -30 -24 -35 4 -2 16 40 43 46 29 1 -4 -3 -18 -11
-33z m87 21 c9 -36 7 -48 -8 -48 -19 0 -39 57 -23 64 21 8 25 6 31 -16z m180
6 c3 -9 3 -20 0 -25 -8 -13 -34 9 -34 27 0 19 26 18 34 -2z m-1307 -26 c-3 -8
-6 -5 -6 6 -1 11 2 17 5 13 3 -3 4 -12 1 -19z m233 -4 c0 -14 -4 -23 -10 -19
-5 3 -10 15 -10 26 0 10 5 19 10 19 6 0 10 -12 10 -26z m957 4 c-3 -8 -6 -5
-6 6 -1 11 2 17 5 13 3 -3 4 -12 1 -19z m-349 -33 c2 -21 0 -26 -7 -16 -5 8
-16 11 -26 7 -21 -8 -55 1 -55 15 0 5 9 9 20 9 11 0 20 5 20 11 0 6 10 9 23 7
16 -2 23 -11 25 -33z m368 3 c4 -6 3 -8 -4 -4 -5 3 -12 0 -15 -6 -2 -7 -8 -10
-12 -6 -8 8 2 28 15 28 5 0 12 -5 16 -12z m-3110 -60 c-2 -22 1 -49 7 -59 12
-20 5 -35 -12 -24 -6 3 -11 35 -11 71 0 42 4 63 10 59 6 -4 9 -25 6 -47z
m1913 -7 c-16 -35 -26 -38 -45 -13 -16 20 -18 42 -4 42 6 0 10 -7 10 -16 0 -8
5 -12 10 -9 6 3 10 18 10 33 0 24 1 25 16 10 14 -14 15 -20 3 -47z m181 -16
c0 -8 -4 -15 -10 -15 -5 0 -10 7 -10 15 0 8 5 15 10 15 6 0 10 -7 10 -15z
m803 -27 c-6 -7 -13 -26 -17 -42 -6 -23 -9 -27 -16 -16 -6 9 -5 19 0 24 6 6
10 18 10 28 0 10 7 18 16 18 12 0 14 -4 7 -12z m-1033 -13 c0 -8 -7 -15 -15
-15 -16 0 -20 12 -8 23 11 12 23 8 23 -8z m75 -25 c-10 -11 -25 -20 -34 -20
-14 1 -15 2 0 13 8 7 18 21 22 31 6 15 11 16 19 8 9 -9 7 -17 -7 -32z m312 8
c-3 -8 -6 -5 -6 6 -1 11 2 17 5 13 3 -3 4 -12 1 -19z m813 12 c0 -5 -6 -10
-14 -10 -8 0 -17 -6 -19 -12 -4 -8 -6 -7 -6 4 -1 15 11 25 32 27 4 1 7 -3 7
-9z m-3070 -36 c0 -2 -7 -4 -15 -4 -8 0 -15 4 -15 10 0 5 7 7 15 4 8 -4 15 -8
15 -10z m3004 10 c9 -3 16 -13 16 -22 0 -12 -3 -13 -11 -5 -6 6 -18 9 -25 6
-14 -5 -19 8 -7 20 8 8 8 8 27 1z m213 -9 c0 -18 -19 -15 -25 3 -2 7 3 12 11
12 7 0 14 -7 14 -15z m-399 -18 c2 -10 0 -26 -4 -35 -6 -14 -8 -13 -14 8 -4
14 -12 24 -18 23 -13 -3 -16 10 -5 21 12 12 38 1 41 -17z m-2708 -7 c0 -5 -5
-10 -11 -10 -5 0 -7 5 -4 10 3 6 8 10 11 10 2 0 4 -4 4 -10z m1933 -7 c-7 -2
-19 -2 -25 0 -7 3 -2 5 12 5 14 0 19 -2 13 -5z m-283 -7 c0 -3 -4 -8 -10 -11
-5 -3 -10 -1 -10 4 0 6 5 11 10 11 6 0 10 -2 10 -4z m730 -6 c0 -5 -4 -10 -10
-10 -5 0 -10 5 -10 10 0 6 5 10 10 10 6 0 10 -4 10 -10z m640 -6 c0 -9 -5 -14
-12 -12 -18 6 -21 28 -4 28 9 0 16 -7 16 -16z m-350 2 c0 -3 -4 -8 -10 -11 -5
-3 -10 -1 -10 4 0 6 5 11 10 11 6 0 10 -2 10 -4z m-520 -37 c0 -5 -7 -9 -15
-9 -15 0 -20 12 -9 23 8 8 24 -1 24 -14z m305 1 c3 -6 -4 -10 -17 -10 -18 0
-20 2 -8 10 19 12 18 12 25 0z m615 -4 c0 -3 -4 -8 -10 -11 -5 -3 -10 -1 -10
4 0 6 5 11 10 11 6 0 10 -2 10 -4z m-903 -28 c-3 -8 -6 -5 -6 6 -1 11 2 17 5
13 3 -3 4 -12 1 -19z m-717 -2 c0 -3 -4 -8 -10 -11 -5 -3 -10 -1 -10 4 0 6 5
11 10 11 6 0 10 -2 10 -4z m78 -7 c-2 -6 -7 -10 -11 -10 -4 1 -14 1 -23 1 -8
0 -12 5 -9 10 8 13 48 13 43 -1z m1457 1 c3 -5 1 -10 -4 -10 -6 0 -11 5 -11
10 0 6 2 10 4 10 3 0 8 -4 11 -10z m-708 -45 c0 -8 -7 -15 -15 -15 -12 0 -12
3 -2 15 7 8 13 15 15 15 1 0 2 -7 2 -15z m-207 -9 c0 -3 -4 -8 -10 -11 -5 -3
-10 -1 -10 4 0 6 5 11 10 11 6 0 10 -2 10 -4z m-2220 -37 c0 -5 -4 -9 -10 -9
-5 0 -10 7 -10 16 0 8 5 12 10 9 6 -3 10 -10 10 -16z m2317 15 c-3 -3 -12 -4
-19 -1 -8 3 -5 6 6 6 11 1 17 -2 13 -5z m-887 -8 c0 -3 -4 -8 -10 -11 -5 -3
-10 -1 -10 4 0 6 5 11 10 11 6 0 10 -2 10 -4z m820 -6 c0 -5 -4 -10 -9 -10 -6
0 -13 5 -16 10 -3 6 1 10 9 10 9 0 16 -4 16 -10z m-60 -20 c0 -5 -9 -10 -21
-10 -11 0 -17 5 -14 10 3 6 13 10 21 10 8 0 14 -4 14 -10z m-982 -12 c16 0 9
-4 -18 -7 -51 -7 -55 -7 -45 9 4 6 14 9 22 6 8 -3 27 -7 41 -8z m1257 -27 c3
-5 1 -12 -5 -16 -5 -3 -10 1 -10 9 0 18 6 21 15 7z m905 -11 c0 -5 -4 -10 -10
-10 -5 0 -10 5 -10 10 0 6 5 10 10 10 6 0 10 -4 10 -10z m-2284 -35 c-29 -15
-43 -14 -33 2 3 5 18 10 34 11 l28 2 -29 -15z m124 -15 c13 -8 13 -10 -2 -10
-9 0 -20 5 -23 10 -8 13 5 13 25 0z m315 0 c3 -5 1 -10 -4 -10 -6 0 -11 5 -11
10 0 6 2 10 4 10 3 0 8 -4 11 -10z m-1425 -35 c0 -9 -6 -12 -15 -9 -8 4 -15
10 -15 15 0 5 7 9 15 9 8 0 15 -7 15 -15z m725 5 c3 -5 1 -10 -4 -10 -6 0 -11
5 -11 10 0 6 2 10 4 10 3 0 8 -4 11 -10z m-1278 -62 c-3 -8 -6 -5 -6 6 -1 11
2 17 5 13 3 -3 4 -12 1 -19z m2393 -118 c12 -8 9 -10 -12 -10 -16 0 -28 5 -28
10 0 13 20 13 40 0z m10 -40 c0 -5 -5 -10 -11 -10 -5 0 -7 5 -4 10 3 6 8 10
11 10 2 0 4 -4 4 -10z m510 -4 c0 -3 -4 -8 -10 -11 -5 -3 -10 -1 -10 4 0 6 5
11 10 11 6 0 10 -2 10 -4z m-93 -41 c0 -8 -4 -12 -9 -9 -4 3 -8 9 -8 15 0 5 4
9 8 9 5 0 9 -7 9 -15z m-857 -66 c0 -6 -4 -7 -10 -4 -5 3 -10 11 -10 16 0 6 5
7 10 4 6 -3 10 -11 10 -16z m149 -10 c-9 -17 -13 -19 -20 -8 -5 8 -3 16 4 21
22 14 28 8 16 -13z m4251 -49 c0 -5 -4 -10 -10 -10 -5 0 -10 5 -10 10 0 6 5
10 10 10 6 0 10 -4 10 -10z m-3071 -166 c-8 -16 -8 -27 0 -43 9 -17 9 -21 -1
-19 -8 2 -14 -8 -16 -24 -2 -16 -8 -28 -13 -28 -12 0 -12 77 1 85 6 3 7 17 4
31 -4 14 -2 24 5 24 6 0 11 10 12 23 0 21 1 21 10 -3 7 -17 6 -31 -2 -46z
m-3082 34 c-3 -8 -6 -5 -6 6 -1 11 2 17 5 13 3 -3 4 -12 1 -19z m3003 -8 c0
-5 -7 -10 -16 -10 -8 0 -12 5 -9 10 3 6 10 10 16 10 5 0 9 -4 9 -10z m-195
-59 c-3 -6 -11 -11 -17 -11 -6 0 -6 6 2 15 14 17 26 13 15 -4z m102 -41 c-7
-19 -18 -44 -24 -55 -10 -17 -11 -14 -6 20 3 22 13 47 22 56 21 22 22 19 8
-21z m-47 -6 c0 -12 -6 -15 -22 -10 -13 3 -27 6 -33 6 -5 0 -3 5 5 10 23 15
50 12 50 -6z m327 -29 c2 -39 -10 -75 -22 -63 -3 3 -7 16 -7 29 -1 13 -6 30
-11 36 -13 18 0 45 20 41 13 -2 19 -14 20 -43z m-517 1 c-14 -14 -22 -2 -14
18 5 14 9 15 15 4 4 -7 4 -17 -1 -22z m428 -27 c2 -25 -1 -30 -13 -25 -10 4
-15 -1 -15 -14 0 -27 -19 -35 -35 -14 -13 18 -14 18 -15 2 0 -24 -16 -23 -23
2 -4 16 -9 18 -29 11 -12 -4 -23 -14 -23 -22 0 -22 -32 -22 -54 0 -25 25 -27
41 -6 41 8 0 19 9 25 20 8 15 21 20 56 20 41 0 45 -2 39 -20 -4 -11 -2 -20 4
-20 6 0 11 5 11 11 0 8 4 8 13 1 15 -13 31 -4 40 21 10 27 23 20 25 -14z
m-425 -51 c-3 -27 -10 -48 -14 -48 -14 0 -11 88 4 93 16 6 16 8 10 -45z m-63
22 c0 -5 -5 -10 -11 -10 -5 0 -7 5 -4 10 3 6 8 10 11 10 2 0 4 -4 4 -10z m525
1 c3 -5 1 -12 -5 -16 -5 -3 -10 1 -10 9 0 18 6 21 15 7z m-315 -66 c0 -3 -13
-5 -30 -5 -28 0 -29 1 -18 25 11 25 11 25 30 6 10 -11 18 -23 18 -26z m280 35
c0 -5 -2 -10 -4 -10 -3 0 -8 5 -11 10 -3 6 -1 10 4 10 6 0 11 -4 11 -10z
m-506 -25 c-4 -8 -11 -15 -16 -15 -6 0 -5 6 2 15 7 8 14 15 16 15 2 0 1 -7 -2
-15z m139 -46 c5 -4 1 -12 -12 -18 -18 -10 -21 -9 -21 8 0 11 3 28 7 38 7 17
8 17 11 -2 3 -11 9 -23 15 -26z m204 16 c50 -30 54 -36 16 -30 -16 3 -41 7
-57 8 -17 2 -36 13 -44 25 -14 21 -13 22 13 22 16 0 48 -11 72 -25z m83 16 c0
-6 -4 -13 -10 -16 -5 -3 -10 1 -10 9 0 9 5 16 10 16 6 0 10 -4 10 -9z m40 5
c0 -11 -19 -15 -25 -6 -3 5 1 10 9 10 9 0 16 -2 16 -4z m40 -6 c0 -5 -7 -10
-16 -10 -8 0 -12 5 -9 10 3 6 10 10 16 10 5 0 9 -4 9 -10z m-310 -40 c0 -10 5
-22 10 -25 9 -6 -10 -35 -23 -35 -7 0 -17 72 -11 82 8 13 24 -1 24 -22z m-290
-54 c0 -3 -4 -8 -10 -11 -5 -3 -10 -1 -10 4 0 6 5 11 10 11 6 0 10 -2 10 -4z
m380 -110 c0 -13 -7 -27 -16 -30 -25 -10 -32 4 -10 20 11 8 14 14 8 14 -7 0
-12 5 -12 10 0 6 7 10 15 10 9 0 15 -9 15 -24z m274 -101 c-4 -8 -10 -12 -15
-9 -11 6 -2 24 11 24 5 0 7 -7 4 -15z m460 -50 c19 -15 19 -15 -2 -15 -12 0
-22 4 -22 9 0 5 -8 12 -17 14 -15 4 -15 5 2 6 11 0 29 -6 39 -14z m-154 -47
c0 -19 -2 -20 -10 -8 -13 19 -13 30 0 30 6 0 10 -10 10 -22z m-36 -14 c9 -24
4 -24 -18 -3 -16 16 -17 19 -4 19 9 0 19 -7 22 -16z m-649 -14 c-3 -5 -11 -10
-16 -10 -6 0 -7 5 -4 10 3 6 11 10 16 10 6 0 7 -4 4 -10z m155 0 c0 -5 -2 -10
-4 -10 -3 0 -8 5 -11 10 -3 6 -1 10 4 10 6 0 11 -4 11 -10z m410 -5 c0 -8 -9
-15 -20 -15 -11 0 -20 -7 -20 -15 0 -13 -3 -13 -13 -3 -12 10 -10 15 7 30 26
21 46 23 46 3z"/>
<path d="M2510 5310 c0 -5 11 -10 24 -10 14 0 28 5 31 10 4 6 -7 10 -24 10
-17 0 -31 -4 -31 -10z"/>
<path d="M2401 5424 c0 -11 3 -14 6 -6 3 7 2 16 -1 19 -3 4 -6 -2 -5 -13z"/>
<path d="M4785 5050 c-3 -5 -1 -10 4 -10 6 0 11 5 11 10 0 6 -2 10 -4 10 -3 0
-8 -4 -11 -10z"/>
<path d="M4710 5025 c0 -8 5 -15 10 -15 6 0 10 7 10 15 0 8 -4 15 -10 15 -5 0
-10 -7 -10 -15z"/>
<path d="M4777 5023 c-12 -11 -8 -23 8 -23 8 0 15 7 15 15 0 16 -12 20 -23 8z"/>
<path d="M2200 4620 c-12 -8 -10 -10 8 -10 13 0 20 4 17 10 -7 12 -6 12 -25 0z"/>
<path d="M2120 4479 c-23 -19 -23 -20 -4 -16 12 2 29 0 38 -5 17 -10 20 -1 10
26 -8 21 -14 20 -44 -5z"/>
<path d="M2021 4417 c-6 -8 -8 -17 -4 -20 3 -4 12 1 18 10 11 14 12 10 10 -25
-3 -56 13 -77 39 -51 19 18 19 19 1 19 -10 0 -15 3 -12 7 4 3 -1 12 -11 19 -9
7 -13 16 -9 20 4 5 12 2 16 -5 6 -9 9 -5 9 13 0 20 -5 26 -23 26 -12 0 -28 -6
-34 -13z"/>
<path d="M2094 4414 c3 -9 6 -20 6 -25 0 -5 5 -9 10 -9 6 0 10 11 10 25 0 16
-6 25 -16 25 -11 0 -14 -5 -10 -16z"/>
<path d="M2010 4365 c0 -9 -9 -15 -22 -15 -14 0 -19 -3 -12 -10 15 -15 54 0
54 21 0 11 -4 19 -10 19 -5 0 -10 -7 -10 -15z"/>
<path d="M2112 4338 c-18 -18 -15 -28 8 -28 13 0 20 7 20 20 0 23 -10 26 -28
8z"/>
<path d="M1990 4200 c0 -5 5 -10 10 -10 6 0 10 5 10 10 0 6 -4 10 -10 10 -5 0
-10 -4 -10 -10z"/>
<path d="M1969 4133 c-1 -5 -2 -22 -4 -40 -3 -32 -3 -32 15 -11 9 12 15 30 12
40 -4 18 -21 25 -23 11z"/>
<path d="M2780 4133 c0 -13 14 -28 28 -31 10 -2 10 2 0 18 -13 20 -28 27 -28
13z"/>
<path d="M2005 4060 c-3 -5 -1 -10 4 -10 6 0 11 5 11 10 0 6 -2 10 -4 10 -3 0
-8 -4 -11 -10z"/>
<path d="M1861 4034 c0 -11 3 -14 6 -6 3 7 2 16 -1 19 -3 4 -6 -2 -5 -13z"/>
<path d="M2671 3981 c-6 -10 -7 -21 -4 -25 13 -12 21 -5 21 19 0 30 -4 31 -17
6z"/>
<path d="M2701 3964 c0 -11 3 -14 6 -6 3 7 2 16 -1 19 -3 4 -6 -2 -5 -13z"/>
<path d="M4817 4465 c-19 -14 -14 -45 8 -45 8 0 11 -8 8 -20 -6 -23 18 -28 34
-7 7 8 3 19 -13 35 -13 12 -24 17 -24 11 0 -7 -3 -9 -7 -5 -5 4 0 14 10 21 10
7 15 15 10 18 -5 3 -16 -1 -26 -8z"/>
<path d="M4811 4394 c0 -11 3 -14 6 -6 3 7 2 16 -1 19 -3 4 -6 -2 -5 -13z"/>
<path d="M4556 4331 c-4 -5 -2 -12 3 -15 5 -4 12 -2 15 3 4 5 2 12 -3 15 -5 4
-12 2 -15 -3z"/>
<path d="M4610 4321 c0 -6 5 -13 10 -16 6 -3 10 1 10 9 0 9 -4 16 -10 16 -5 0
-10 -4 -10 -9z"/>
<path d="M4530 4269 c0 -27 24 -39 68 -35 23 2 45 0 48 -5 3 -5 12 -5 23 0 10
6 27 7 39 4 13 -3 22 -1 22 6 0 6 -9 11 -20 11 -11 0 -20 5 -20 12 0 6 -8 4
-19 -6 -15 -14 -20 -14 -30 -2 -9 10 -21 12 -48 6 -29 -7 -39 -5 -50 8 -11 15
-12 15 -13 1z"/>
<path d="M4500 4240 c0 -5 5 -10 11 -10 5 0 7 5 4 10 -3 6 -8 10 -11 10 -2 0
-4 -4 -4 -10z"/>
<path d="M4655 4170 c3 -5 8 -10 11 -10 2 0 4 5 4 10 0 6 -5 10 -11 10 -5 0
-7 -4 -4 -10z"/>
<path d="M4071 4124 c-9 -11 -10 -18 -4 -23 6 -3 12 -15 15 -26 2 -12 10 -19
21 -17 9 2 20 -4 23 -12 3 -9 11 -13 16 -10 6 4 6 9 -2 14 -9 6 -9 13 -1 28
16 30 14 36 -16 50 -33 15 -35 15 -52 -4z"/>
<path d="M4352 4088 c3 -7 12 -14 21 -16 12 -2 15 1 11 12 -7 19 -38 22 -32 4z"/>
<path d="M4461 4074 c0 -11 3 -14 6 -6 3 7 2 16 -1 19 -3 4 -6 -2 -5 -13z"/>
<path d="M4236 4065 c-3 -8 -1 -15 4 -15 6 0 10 7 10 15 0 8 -2 15 -4 15 -2 0
-6 -7 -10 -15z"/>
<path d="M3574 4035 c25 -19 36 -19 36 0 0 10 -10 15 -27 15 -27 -1 -27 -1 -9
-15z"/>
<path d="M3670 4031 c0 -12 42 -42 49 -36 5 6 -29 45 -41 45 -4 0 -8 -4 -8 -9z"/>
<path d="M3550 4010 c-7 -18 -5 -49 3 -41 5 5 7 17 4 27 -3 11 -6 17 -7 14z"/>
<path d="M4000 3998 c0 -11 12 -10 30 2 12 7 10 9 -8 7 -12 0 -22 -5 -22 -9z"/>
<path d="M4596 3954 c-4 -15 -5 -29 -1 -32 3 -3 5 2 5 11 0 10 8 17 20 17 13
0 18 5 14 15 -10 24 -31 17 -38 -11z"/>
<path d="M4495 3950 c-18 -8 -17 -9 8 -9 15 -1 27 4 27 9 0 12 -8 12 -35 0z"/>
<path d="M3625 3940 c-3 -5 -1 -18 4 -27 9 -16 10 -14 11 10 0 28 -5 34 -15
17z"/>
<path d="M4655 3940 c-3 -5 -1 -10 4 -10 6 0 11 5 11 10 0 6 -2 10 -4 10 -3 0
-8 -4 -11 -10z"/>
<path d="M3895 3910 c3 -5 8 -10 11 -10 2 0 4 5 4 10 0 6 -5 10 -11 10 -5 0
-7 -4 -4 -10z"/>
<path d="M4080 3890 c0 -11 5 -20 10 -20 6 0 10 9 10 20 0 11 -4 20 -10 20 -5
0 -10 -9 -10 -20z"/>
<path d="M3568 3833 c7 -3 16 -2 19 1 4 3 -2 6 -13 5 -11 0 -14 -3 -6 -6z"/>
<path d="M3550 3806 c0 -17 5 -21 43 -30 30 -7 35 4 11 28 -19 20 -54 21 -54
2z"/>
<path d="M3880 3790 c0 -5 5 -10 10 -10 6 0 10 5 10 10 0 6 -4 10 -10 10 -5 0
-10 -4 -10 -10z"/>
<path d="M3585 3701 c-20 -8 -20 -8 1 -15 25 -8 56 2 48 15 -6 11 -21 11 -49
0z"/>
<path d="M4442 3693 c-17 -31 -15 -40 10 -38 21 2 40 25 20 25 -6 0 -12 8 -14
18 -3 15 -5 14 -16 -5z"/>
<path d="M3666 3633 c12 -49 54 -65 54 -21 0 15 -5 19 -19 15 -12 -3 -18 1
-17 11 0 8 -5 17 -12 19 -10 4 -11 -2 -6 -24z"/>
<path d="M4360 3580 c0 -5 5 -10 10 -10 6 0 10 5 10 10 0 6 -4 10 -10 10 -5 0
-10 -4 -10 -10z"/>
<path d="M4590 3568 c0 -6 3 -8 7 -5 3 4 12 2 20 -4 8 -7 13 -8 13 -1 0 5 -7
13 -16 16 -22 8 -24 8 -24 -6z"/>
<path d="M4565 3511 c-1 -20 -5 -44 -9 -53 -7 -15 -3 -18 29 -18 37 0 37 1 31
31 -3 17 -6 39 -6 49 0 10 -9 19 -22 22 -20 4 -23 0 -23 -31z"/>
<path d="M4493 3493 c-4 -9 -1 -19 5 -21 7 -2 12 -10 12 -19 0 -8 5 -13 11
-11 6 2 10 7 10 11 -1 4 -1 16 -1 26 0 25 -29 36 -37 14z"/>
<path d="M3732 3418 c6 -18 28 -21 28 -4 0 9 -7 16 -16 16 -9 0 -14 -5 -12
-12z"/>
<path d="M4642 3403 c-17 -7 -5 -23 18 -23 13 0 17 5 14 15 -6 16 -11 17 -32
8z"/>
<path d="M4501 3314 c0 -11 3 -14 6 -6 3 7 2 16 -1 19 -3 4 -6 -2 -5 -13z"/>
<path d="M4650 3306 c0 -9 5 -16 10 -16 6 0 10 4 10 9 0 6 -4 13 -10 16 -5 3
-10 -1 -10 -9z"/>
<path d="M4276 3285 c5 -13 2 -15 -19 -10 -36 9 -42 -10 -12 -39 30 -30 32
-31 52 -11 8 8 19 13 24 10 5 -4 9 -1 9 4 0 6 -11 11 -24 11 -19 0 -23 4 -19
19 3 10 0 22 -6 25 -7 5 -8 1 -5 -9z"/>
<path d="M4433 3275 c-15 -16 -17 -35 -5 -35 8 0 42 37 42 45 0 10 -26 4 -37
-10z"/>
<path d="M3666 3255 c-4 -10 1 -15 16 -15 17 0 18 2 8 15 -7 8 -14 15 -15 15
-2 0 -5 -7 -9 -15z"/>
<path d="M4680 3235 c0 -8 7 -15 15 -15 8 0 15 7 15 15 0 8 -7 15 -15 15 -8 0
-15 -7 -15 -15z"/>
<path d="M3607 3223 c-12 -11 -8 -23 8 -23 8 0 15 7 15 15 0 16 -12 20 -23 8z"/>
<path d="M4442 3199 c2 -6 8 -10 13 -10 5 0 11 4 13 10 2 6 -4 11 -13 11 -9 0
-15 -5 -13 -11z"/>
<path d="M4690 3155 c0 -8 2 -15 4 -15 2 0 11 -3 20 -6 12 -4 16 0 16 15 0 14
-6 21 -20 21 -11 0 -20 -7 -20 -15z"/>
<path d="M4460 3060 c0 -35 3 -60 7 -57 7 8 5 108 -3 116 -2 2 -4 -24 -4 -59z"/>
<path d="M3661 3096 c-9 -11 -9 -16 0 -21 10 -7 28 10 29 28 0 12 -17 8 -29
-7z"/>
<path d="M3820 3079 c0 -6 -7 -9 -15 -5 -8 3 -15 1 -15 -4 0 -6 -10 -10 -22
-10 -21 -1 -21 -2 -5 -11 9 -6 25 -8 35 -5 20 7 48 46 32 46 -5 0 -10 -5 -10
-11z"/>
<path d="M4673 3050 c-7 -10 -10 -26 -7 -35 10 -25 20 -17 22 20 3 40 1 42
-15 15z"/>
<path d="M3680 3050 c0 -5 5 -10 10 -10 6 0 10 5 10 10 0 6 -4 10 -10 10 -5 0
-10 -4 -10 -10z"/>
<path d="M3495 3039 c-10 -15 3 -25 16 -12 7 7 7 13 1 17 -6 3 -14 1 -17 -5z"/>
<path d="M3456 3031 c-4 -5 0 -13 7 -18 20 -12 30 -45 16 -53 -16 -10 -1 -50
15 -44 8 3 16 20 18 37 3 18 9 41 13 51 7 16 5 18 -10 12 -11 -4 -25 0 -35 9
-11 10 -20 12 -24 6z"/>
<path d="M3590 2984 c0 -8 -4 -12 -10 -9 -5 3 -10 -1 -10 -9 0 -9 5 -16 10
-16 6 0 10 -4 10 -10 0 -5 -7 -10 -15 -10 -8 0 -15 -7 -15 -15 0 -8 4 -15 9
-15 5 0 17 -8 26 -17 13 -13 21 -14 35 -5 10 6 27 8 39 5 15 -4 21 -1 21 10 0
8 3 23 7 32 5 15 1 16 -28 10 -19 -4 -35 -11 -37 -16 -2 -5 -8 -9 -13 -9 -5 0
-8 20 -5 45 3 34 1 45 -10 45 -8 0 -14 -7 -14 -16z"/>
<path d="M4227 2913 c-10 -9 -9 -33 1 -33 4 0 8 9 8 20 0 23 0 22 -9 13z"/>
<path d="M4638 2900 c-2 -7 -17 -12 -33 -12 -50 0 -110 -79 -101 -132 4 -28
24 -31 24 -4 0 36 26 95 40 90 8 -2 10 2 6 13 -6 14 -1 16 34 14 47 -4 58 3
44 27 -7 12 -11 13 -14 4z"/>
<path d="M4310 2800 c0 -5 5 -10 10 -10 6 0 10 5 10 10 0 6 -4 10 -10 10 -5 0
-10 -4 -10 -10z"/>
<path d="M3497 2786 c-4 -10 -7 -25 -6 -34 0 -11 4 -9 10 7 5 13 8 29 6 35 -2
5 -6 2 -10 -8z"/>
<path d="M3690 2774 c0 -8 5 -12 10 -9 6 3 10 10 10 16 0 5 -4 9 -10 9 -5 0
-10 -7 -10 -16z"/>
<path d="M4322 2751 c2 -7 7 -12 11 -12 12 1 9 15 -3 20 -7 2 -11 -2 -8 -8z"/>
<path d="M3590 2710 c0 -11 3 -20 8 -20 4 0 13 9 20 20 11 18 10 20 -8 20 -13
0 -20 -7 -20 -20z"/>
<path d="M3667 2656 c-3 -8 1 -20 9 -26 9 -8 14 -9 14 -2 0 6 3 17 6 26 4 10
1 16 -9 16 -8 0 -17 -6 -20 -14z"/>
<path d="M3428 2623 c6 -2 18 -2 25 0 6 3 1 5 -13 5 -14 0 -19 -2 -12 -5z"/>
<path d="M3510 2610 c0 -5 4 -10 9 -10 6 0 13 5 16 10 3 6 -1 10 -9 10 -9 0
-16 -4 -16 -10z"/>
<path d="M3407 2603 c-13 -12 -7 -33 8 -33 9 0 18 -7 21 -15 7 -18 114 -22
114 -5 0 6 10 14 23 19 20 8 18 9 -18 15 -22 4 -48 11 -57 17 -24 12 -48 12
-28 -1 11 -7 7 -10 -18 -10 -20 0 -31 4 -27 10 7 11 -8 14 -18 3z"/>
<path d="M3423 2523 c23 -6 22 -39 -3 -65 -21 -22 -27 -58 -11 -58 5 0 11 6
14 13 2 6 3 5 2 -3 -2 -8 -6 -23 -10 -32 -6 -15 -2 -18 19 -18 17 0 24 4 20
14 -3 7 3 28 14 47 17 31 17 36 3 64 -19 35 -30 45 -51 44 -11 -1 -10 -3 3 -6z"/>
<path d="M3650 2450 c0 -5 4 -10 9 -10 6 0 13 5 16 10 3 6 -1 10 -9 10 -9 0
-16 -4 -16 -10z"/>
<path d="M3670 2426 c0 -2 7 -9 15 -16 9 -7 15 -8 15 -2 0 5 -7 12 -15 16 -8
3 -15 4 -15 2z"/>
<path d="M3738 2413 c7 -3 16 -2 19 1 4 3 -2 6 -13 5 -11 0 -14 -3 -6 -6z"/>
<path d="M3700 2360 c0 -5 4 -10 9 -10 6 0 12 -15 14 -32 3 -29 4 -27 5 10 2
31 -2 42 -13 42 -8 0 -15 -4 -15 -10z"/>
<path d="M4055 2320 c-3 -5 -1 -10 4 -10 6 0 11 5 11 10 0 6 -2 10 -4 10 -3 0
-8 -4 -11 -10z"/>
<path d="M3740 2201 c0 -12 5 -21 10 -21 6 0 10 6 10 14 0 8 -4 18 -10 21 -5
3 -10 -3 -10 -14z"/>
<path d="M3845 2170 c-3 -5 -1 -10 4 -10 6 0 11 5 11 10 0 6 -2 10 -4 10 -3 0
-8 -4 -11 -10z"/>
<path d="M3685 2140 c-3 -5 -1 -10 4 -10 6 0 11 5 11 10 0 6 -2 10 -4 10 -3 0
-8 -4 -11 -10z"/>
<path d="M3764 2096 c-3 -8 -1 -23 4 -32 9 -16 11 -15 21 5 12 22 7 41 -10 41
-5 0 -12 -6 -15 -14z"/>
<path d="M4032 2048 c5 -15 28 -18 29 -3 0 6 -7 12 -17 13 -10 3 -15 -1 -12
-10z"/>
<path d="M3780 1931 c0 -5 9 -7 20 -4 11 3 20 7 20 9 0 2 -9 4 -20 4 -11 0
-20 -4 -20 -9z"/>
<path d="M3898 1863 c7 -3 16 -2 19 1 4 3 -2 6 -13 5 -11 0 -14 -3 -6 -6z"/>
<path d="M3840 1849 c0 -5 5 -7 10 -4 6 3 10 8 10 11 0 2 -4 4 -10 4 -5 0 -10
-5 -10 -11z"/>
<path d="M3761 1821 l-24 -19 32 -16 c37 -19 59 -12 36 11 -9 9 -14 22 -11 29
7 19 -4 17 -33 -5z"/>
<path d="M3875 1810 c4 -6 11 -8 16 -5 14 9 11 15 -7 15 -8 0 -12 -5 -9 -10z"/>
<path d="M3880 1779 c0 -5 5 -7 10 -4 6 3 10 8 10 11 0 2 -4 4 -10 4 -5 0 -10
-5 -10 -11z"/>
<path d="M1610 3710 c0 -5 5 -10 10 -10 6 0 10 5 10 10 0 6 -4 10 -10 10 -5 0
-10 -4 -10 -10z"/>
<path d="M1615 3608 c-9 -24 -2 -61 13 -66 14 -4 17 45 2 68 -8 12 -10 12 -15
-2z"/>
<path d="M6426 2668 c-7 -13 -16 -39 -19 -59 -5 -33 -3 -36 14 -32 10 3 19 14
19 24 0 10 6 22 14 26 7 4 15 20 18 36 4 21 1 27 -13 27 -10 0 -25 -10 -33
-22z"/>
<path d="M6070 2601 c0 -6 -11 -13 -25 -17 -27 -7 -29 -11 -15 -34 8 -12 12
-11 31 8 11 13 27 21 35 18 22 -8 17 12 -6 24 -13 7 -20 7 -20 1z"/>
<path d="M6117 2524 c-4 -4 -7 -14 -7 -23 0 -11 3 -12 11 -4 6 6 10 16 7 23
-2 6 -7 8 -11 4z"/>
<path d="M6132 2465 c2 -14 -2 -19 -14 -17 -9 1 -22 -7 -28 -18 -15 -28 3 -50
41 -50 25 0 29 4 30 28 l1 27 7 -30 c4 -20 9 -26 14 -17 5 6 17 12 28 12 10 0
19 5 19 10 0 6 -7 10 -15 10 -8 0 -15 5 -15 10 0 6 -7 10 -16 10 -9 0 -25 10
-35 23 -18 21 -19 21 -17 2z"/>
<path d="M5850 2264 c0 -8 5 -12 10 -9 6 3 10 10 10 16 0 5 -4 9 -10 9 -5 0
-10 -7 -10 -16z"/>
<path d="M2518 2152 c-28 -6 -21 -19 12 -24 17 -3 30 -3 30 -1 0 12 -27 28
-42 25z"/>
<path d="M2575 2140 c-3 -5 -1 -10 4 -10 6 0 11 5 11 10 0 6 -2 10 -4 10 -3 0
-8 -4 -11 -10z"/>
<path d="M2516 2075 c-3 -9 0 -15 9 -15 8 0 15 7 15 15 0 8 -4 15 -9 15 -5 0
-11 -7 -15 -15z"/>
<path d="M2298 7190 c-16 -17 -15 -20 6 -44 12 -14 28 -26 35 -26 10 0 11 3 2
14 -6 8 -13 28 -14 45 -2 35 -5 37 -29 11z"/>
<path d="M2358 6833 c7 -3 16 -2 19 1 4 3 -2 6 -13 5 -11 0 -14 -3 -6 -6z"/>
<path d="M1642 6383 c4 -126 23 -136 32 -17 6 84 -1 114 -26 114 -5 0 -7 -43
-6 -97z"/>
<path d="M1817 5523 c-2 -5 -1 -19 4 -33 7 -23 7 -23 8 8 1 31 -3 40 -12 25z"/>
<path d="M1269 3465 c-7 -31 2 -70 12 -53 7 10 9 10 9 1 0 -7 5 -13 10 -13 6
0 10 11 10 25 0 15 -6 25 -14 25 -8 0 -16 8 -18 18 -4 15 -5 14 -9 -3z"/>
<path d="M1275 3340 c-4 -6 -3 -16 3 -22 6 -6 12 -6 17 2 4 6 3 16 -3 22 -6 6
-12 6 -17 -2z"/>
<path d="M1265 3165 c-7 -63 -3 -86 12 -72 6 7 5 128 -2 135 -2 2 -6 -26 -10
-63z"/>
<path d="M1270 3045 c0 -9 7 -23 15 -31 13 -14 15 -14 15 1 0 9 -7 23 -15 31
-13 14 -15 14 -15 -1z"/>
<path d="M1290 2940 c0 -6 7 -10 15 -10 8 0 15 2 15 4 0 2 -7 6 -15 10 -8 3
-15 1 -15 -4z"/>
<path d="M1271 2764 c0 -11 3 -14 6 -6 3 7 2 16 -1 19 -3 4 -6 -2 -5 -13z"/>
<path d="M1272 2710 c0 -14 2 -19 5 -12 2 6 2 18 0 25 -3 6 -5 1 -5 -13z"/>
<path d="M1276 2542 c-4 -13 -5 -26 -2 -29 10 -11 18 4 14 29 l-4 23 -8 -23z"/>
<path d="M1272 2420 c0 -14 2 -19 5 -12 2 6 2 18 0 25 -3 6 -5 1 -5 -13z"/>
<path d="M3139 2226 c-8 -8 3 -96 12 -96 11 0 22 42 17 71 -3 21 -19 35 -29
25z"/>
<path d="M3031 2203 c-9 -14 -12 -15 -19 -5 -7 10 -11 7 -14 -12 -6 -29 6 -33
47 -14 14 6 24 18 23 26 -4 23 -25 25 -37 5z"/>
<path d="M2965 2140 c-3 -5 -2 -10 4 -10 5 0 13 5 16 10 3 6 2 10 -4 10 -5 0
-13 -4 -16 -10z"/>
<path d="M3041 2100 c-10 -5 -11 -19 -5 -51 5 -24 9 -48 10 -54 2 -9 3 -14 9
-40 1 -5 3 -16 3 -23 1 -7 7 -10 13 -6 6 3 9 15 6 25 -4 14 0 19 14 20 10 1
24 3 29 4 6 1 18 3 27 4 13 1 14 4 5 13 -7 7 -12 20 -12 30 0 10 -4 18 -10 18
-5 0 -10 9 -10 20 0 11 -8 23 -17 26 -10 3 -25 9 -34 14 -9 4 -22 5 -28 0z"/>
<path d="M3186 2061 c-4 -7 -5 -15 -2 -18 9 -9 19 4 14 18 -4 11 -6 11 -12 0z"/>
<path d="M3000 2008 c0 -10 -7 -18 -15 -18 -8 0 -14 -3 -13 -7 2 -13 -23 -67
-35 -75 -7 -4 -25 -8 -42 -8 l-30 -1 25 -13 c16 -10 30 -11 42 -5 9 5 37 8 62
6 41 -4 44 -3 36 14 -6 10 -10 35 -10 56 0 21 -5 45 -10 53 -8 13 -10 12 -10
-2z"/>
<path d="M2725 1980 c3 -5 10 -10 16 -10 5 0 9 5 9 10 0 6 -7 10 -16 10 -8 0
-12 -4 -9 -10z"/>
<path d="M3041 1851 c-31 -31 -28 -55 6 -46 34 8 30 5 35 34 4 32 -16 37 -41
12z"/>
<path d="M3038 1755 c-6 -29 -2 -31 18 -11 18 18 18 36 0 36 -7 0 -16 -11 -18
-25z"/>
<path d="M1957 1693 c-11 -10 -8 -43 3 -43 6 0 10 11 10 25 0 26 -2 29 -13 18z"/>
<path d="M1913 1653 c-18 -6 -16 -33 1 -33 19 0 31 19 20 30 -5 4 -15 5 -21 3z"/>
<path d="M2035 1601 c-3 -5 -1 -12 5 -16 5 -3 10 1 10 9 0 18 -6 21 -15 7z"/>
<path d="M2105 1500 c3 -5 8 -10 11 -10 2 0 4 5 4 10 0 6 -5 10 -11 10 -5 0
-7 -4 -4 -10z"/>
<path d="M2145 1460 c3 -5 8 -10 11 -10 2 0 4 5 4 10 0 6 -5 10 -11 10 -5 0
-7 -4 -4 -10z"/>
<path d="M1342 1430 c0 -14 2 -19 5 -12 2 6 2 18 0 25 -3 6 -5 1 -5 -13z"/>
<path d="M1890 1408 c0 -4 9 -8 20 -8 11 0 20 4 20 8 0 4 -9 8 -20 8 -11 0
-20 -4 -20 -8z"/>
<path d="M6440 304 c0 -14 3 -14 15 -4 8 7 15 14 15 16 0 2 -7 4 -15 4 -8 0
-15 -7 -15 -16z"/>
<path d="M6454 118 c9 -102 13 -118 33 -118 14 0 15 10 9 71 -6 64 -27 129
-43 129 -3 0 -3 -37 1 -82z"/>
<path d="M1600 67 c0 -18 21 -37 40 -37 13 0 13 1 0 10 -8 5 -11 10 -6 10 11
0 -14 30 -25 30 -5 0 -9 -6 -9 -13z"/>
<path d="M1260 58 c0 -7 -17 -23 -38 -35 l-37 -23 50 3 c51 2 55 6 46 60 -2
12 -21 8 -21 -5z"/>
</g>
</svg>
